<?xml version="1.0" encoding="UTF-8" standalone="no"?>
<!DOCTYPE svg PUBLIC "-//W3C//DTD SVG 1.1//EN" "http://www.w3.org/Graphics/SVG/1.1/DTD/svg11.dtd">
<svg width="100%" height="100%" viewBox="0 0 1080 1080" version="1.1" xmlns="http://www.w3.org/2000/svg" xmlns:xlink="http://www.w3.org/1999/xlink" xml:space="preserve" xmlns:serif="http://www.serif.com/" style="fill-rule:evenodd;clip-rule:evenodd;stroke-linejoin:round;stroke-miterlimit:2;">
    <g transform="matrix(1,0,0,1,-1180,1.7053e-13)">
        <g transform="matrix(1,0,0,1,1180,0)">
            <path id="repeating-honeycomb" serif:id="repeating honeycomb" d="M0,31.43L0.093,31.43L18.649,0.118L18.579,-0L64.496,-0L64.427,0.118L82.982,31.43L120.093,31.43L138.649,0.118L138.579,-0L184.492,-0L184.422,0.118L202.978,31.43L240.089,31.43L258.644,0.118L258.575,-0L304.49,-0L304.42,0.118L322.976,31.43L360.087,31.43L378.643,0.118L378.573,-0L424.485,-0L424.416,0.118L442.971,31.43L480.083,31.43L498.638,0.118L498.569,-0L544.49,-0L544.42,0.118L562.976,31.43L600.087,31.43L618.643,0.118L618.573,-0L664.485,-0L664.415,0.118L682.971,31.43L720.082,31.43L738.638,0.118L738.568,-0L784.483,-0L784.414,0.118L802.969,31.43L840.081,31.43L858.636,0.118L858.567,-0L904.479,-0L904.409,0.118L922.965,31.43L960.076,31.43L978.632,0.118L978.562,-0L1024.48,-0L1024.41,0.118L1042.96,31.43L1080,31.43L1080,36.301L1042.96,36.301L1024.41,67.614L1042.96,98.926L1080,98.926L1080,103.797L1042.96,103.797L1024.41,135.11L1042.96,166.422L1080,166.422L1080,171.294L1042.96,171.294L1024.41,202.606L1042.96,233.918L1080,233.918L1080,238.79L1042.96,238.79L1024.41,270.102L1042.96,301.415L1080,301.415L1080,306.286L1042.96,306.286L1024.41,337.598L1042.96,368.911L1080,368.911L1080,373.782L1042.96,373.782L1024.41,405.094L1042.96,436.407L1080,436.407L1080,441.278L1042.96,441.278L1024.41,472.591L1042.96,503.903L1080,503.903L1080,508.721L1042.96,508.721L1024.41,540.034L1042.96,571.346L1080,571.346L1080,576.217L1042.96,576.217L1024.41,607.53L1042.96,638.842L1080,638.842L1080,643.713L1042.96,643.713L1024.41,675.026L1042.96,706.338L1080,706.338L1080,711.21L1042.96,711.21L1024.41,742.522L1042.96,773.834L1080,773.834L1080,778.706L1042.96,778.706L1024.41,810.018L1042.96,841.331L1080,841.331L1080,846.202L1042.96,846.202L1024.41,877.514L1042.96,908.827L1080,908.827L1080,913.698L1042.96,913.698L1024.41,945.011L1042.96,976.323L1080,976.323L1080,981.194L1042.96,981.194L1024.41,1012.51L1042.96,1043.82L1080,1043.82L1080,1048.63L1042.96,1048.63L1024.41,1079.94L1024.44,1080L981.491,1080L981.507,1079.97L981.504,1079.97L981.485,1080L978.599,1080L978.632,1079.94L960.076,1048.63L922.965,1048.63L904.409,1079.94L904.442,1080L861.496,1080L861.512,1079.97L861.509,1079.97L861.49,1080L858.603,1080L858.636,1079.94L840.081,1048.63L802.969,1048.63L784.414,1079.94L784.447,1080L741.497,1080L741.513,1079.97L741.51,1079.97L741.491,1080L738.605,1080L738.638,1079.94L720.082,1048.63L682.971,1048.63L664.415,1079.94L664.448,1080L621.502,1080L621.518,1079.97L621.515,1079.97L621.496,1080L618.609,1080L618.643,1079.94L600.087,1048.63L562.976,1048.63L544.42,1079.94L544.453,1080L541.566,1080L541.549,1079.97L541.547,1079.97L541.562,1080L501.498,1080L501.514,1079.97L501.511,1079.97L501.492,1080L498.605,1080L498.638,1079.94L480.083,1048.63L442.971,1048.63L424.416,1079.94L424.449,1080L381.503,1080L381.518,1079.97L381.515,1079.97L381.497,1080L378.61,1080L378.643,1079.94L360.087,1048.63L322.976,1048.63L304.42,1079.94L304.454,1080L261.504,1080L261.52,1079.97L261.517,1079.97L261.498,1080L258.611,1080L258.644,1079.94L240.089,1048.63L202.978,1048.63L184.422,1079.94L184.455,1080L141.509,1080L141.525,1079.97L141.521,1079.97L141.503,1080L138.616,1080L138.649,1079.94L120.093,1048.63L82.982,1048.63L64.427,1079.94L64.46,1080L21.509,1080L21.524,1079.97L21.521,1079.97L21.502,1080L18.616,1080L18.649,1079.94L0.093,1048.63L0,1048.63L0,1043.82L0.093,1043.82L18.649,1012.51L0.093,981.194L0,981.194L0,976.323L0.093,976.323L18.649,945.011L0.093,913.698L0,913.698L0,908.827L0.093,908.827L18.649,877.514L0.093,846.202L0,846.202L0,841.331L0.093,841.331L18.649,810.018L0.093,778.706L0,778.706L0,773.834L0.093,773.834L18.649,742.522L0.093,711.21L0,711.21L0,706.338L0.093,706.338L18.649,675.026L0.093,643.713L0,643.713L0,638.842L0.093,638.842L18.649,607.53L0.093,576.217L0,576.217L0,571.346L0.093,571.346L18.649,540.034L0.093,508.721L0,508.721L0,503.903L0.093,503.903L18.649,472.591L0.093,441.278L0,441.278L0,436.407L0.093,436.407L18.649,405.094L0.093,373.782L0,373.782L0,368.911L0.093,368.911L18.649,337.598L0.093,306.286L0,306.286L0,301.415L0.093,301.415L18.649,270.102L0.093,238.79L0,238.79L0,233.918L0.093,233.918L18.649,202.606L0.093,171.294L0,171.294L0,166.422L0.093,166.422L18.649,135.11L0.093,103.797L0,103.797L0,98.926L0.093,98.926L18.649,67.614L0.093,36.301L0,36.301L0,31.43ZM858.636,472.591L840.081,441.278L802.969,441.278L784.414,472.591L802.969,503.903L840.081,503.903L858.636,472.591ZM558.642,371.346L540.086,340.034L502.975,340.034L484.419,371.346L502.975,402.659L540.086,402.659L558.642,371.346ZM138.649,945.011L120.093,913.698L82.982,913.698L64.427,945.011L82.982,976.323L120.093,976.323L138.649,945.011ZM498.638,472.591L480.083,441.278L442.971,441.278L424.416,472.591L442.971,503.903L480.083,503.903L498.638,472.591ZM618.643,540.034L600.087,508.721L562.976,508.721L544.42,540.034L562.976,571.346L600.087,571.346L618.643,540.034ZM858.636,405.094L840.081,373.782L802.969,373.782L784.414,405.094L802.969,436.407L840.081,436.407L858.636,405.094ZM438.646,641.278L420.091,609.965L382.979,609.965L364.424,641.278L382.979,672.59L420.091,672.59L438.646,641.278ZM918.64,573.782L900.084,542.469L862.973,542.469L844.417,573.782L862.973,605.094L900.084,605.094L918.64,573.782ZM738.638,135.11L720.082,103.797L682.971,103.797L664.415,135.11L682.971,166.422L720.082,166.422L738.638,135.11ZM738.638,202.606L720.082,171.294L682.971,171.294L664.415,202.606L682.971,233.918L720.082,233.918L738.638,202.606ZM618.643,1012.51L600.087,981.194L562.976,981.194L544.42,1012.51L562.976,1043.82L600.087,1043.82L618.643,1012.51ZM678.646,101.362L660.09,70.049L622.979,70.049L604.423,101.362L622.979,132.674L660.09,132.674L678.646,101.362ZM738.638,945.011L720.082,913.698L682.971,913.698L664.415,945.011L682.971,976.323L720.082,976.323L738.638,945.011ZM138.649,472.591L120.093,441.278L82.982,441.278L64.427,472.591L82.982,503.903L120.093,503.903L138.649,472.591ZM738.638,540.034L720.082,508.721L682.971,508.721L664.415,540.034L682.971,571.346L720.082,571.346L738.638,540.034ZM438.646,978.759L420.091,947.446L382.979,947.446L364.424,978.759L382.979,1010.07L420.091,1010.07L438.646,978.759ZM558.642,168.858L540.086,137.545L502.975,137.545L484.419,168.858L502.975,200.17L540.086,200.17L558.642,168.858ZM798.641,101.362L780.085,70.049L742.974,70.049L724.418,101.362L742.974,132.674L780.085,132.674L798.641,101.362ZM261.522,540.06L261.518,540.055L241.532,573.782L261.531,607.53L241.532,641.278L261.531,675.026L241.532,708.774L261.531,742.522L241.532,776.27L261.531,810.018L241.532,843.766L261.531,877.514L241.532,911.262L261.531,945.011L241.532,978.759L261.531,1012.51L241.55,1046.22L241.553,1046.23L261.537,1012.51L241.538,978.759L261.537,945.011L241.538,911.262L261.537,877.514L241.538,843.766L261.537,810.018L241.538,776.27L261.537,742.522L241.538,708.774L261.537,675.026L241.538,641.278L261.537,607.53L241.538,573.782L261.522,540.06ZM141.526,540.06L141.523,540.055L121.537,573.782L141.536,607.53L121.537,641.278L141.536,675.026L121.537,708.774L141.536,742.522L121.537,776.27L141.536,810.018L121.537,843.766L141.536,877.514L121.537,911.262L141.536,945.011L121.537,978.759L141.536,1012.51L121.554,1046.22L121.557,1046.23L141.542,1012.51L121.543,978.759L141.542,945.011L121.543,911.262L141.542,877.514L121.543,843.766L141.542,810.018L121.543,776.27L141.542,742.522L121.543,708.774L141.542,675.026L121.543,641.278L141.542,607.53L121.543,573.782L141.526,540.06ZM1038.63,371.346L1020.08,340.034L982.968,340.034L964.412,371.346L982.968,402.659L1020.08,402.659L1038.63,371.346ZM798.641,168.858L780.085,137.545L742.974,137.545L724.418,168.858L742.974,200.17L780.085,200.17L798.641,168.858ZM678.646,978.759L660.09,947.446L622.979,947.446L604.423,978.759L622.979,1010.07L660.09,1010.07L678.646,978.759ZM738.638,405.094L720.082,373.782L682.971,373.782L664.415,405.094L682.971,436.407L720.082,436.407L738.638,405.094ZM78.652,33.866L60.096,2.553L22.985,2.553L4.429,33.866L22.985,65.178L60.096,65.178L78.652,33.866ZM678.646,303.85L660.09,272.538L622.979,272.538L604.423,303.85L622.979,335.163L660.09,335.163L678.646,303.85ZM438.646,303.85L420.091,272.538L382.979,272.538L364.424,303.85L382.979,335.163L420.091,335.163L438.646,303.85ZM618.643,742.522L600.087,711.21L562.976,711.21L544.42,742.522L562.976,773.834L600.087,773.834L618.643,742.522ZM621.52,540.06L621.516,540.055L601.53,573.782L621.529,607.53L601.53,641.278L621.529,675.026L601.53,708.774L621.529,742.522L601.53,776.27L621.529,810.018L601.53,843.766L621.529,877.514L601.53,911.262L621.529,945.011L601.53,978.759L621.529,1012.51L601.548,1046.22L601.551,1046.23L621.535,1012.51L601.536,978.759L621.535,945.011L601.536,911.262L621.535,877.514L601.536,843.766L621.535,810.018L601.536,776.27L621.535,742.522L601.536,708.774L621.535,675.026L601.536,641.278L621.535,607.53L601.536,573.782L621.52,540.06ZM498.638,270.102L480.083,238.79L442.971,238.79L424.416,270.102L442.971,301.415L480.083,301.415L498.638,270.102ZM78.652,843.766L60.096,812.454L22.985,812.454L4.429,843.766L22.985,875.079L60.096,875.079L78.652,843.766ZM558.642,101.362L540.086,70.049L502.975,70.049L484.419,101.362L502.975,132.674L540.086,132.674L558.642,101.362ZM241.551,506.317L261.537,472.591L241.538,438.843L261.537,405.094L241.538,371.346L261.537,337.598L241.538,303.85L261.537,270.102L241.538,236.354L261.537,202.606L241.538,168.858L261.537,135.11L241.538,101.362L261.537,67.614L241.538,33.866L261.52,0.147L261.517,0.142L241.532,33.866L261.531,67.614L241.532,101.362L261.531,135.11L241.532,168.858L261.531,202.606L241.532,236.354L261.531,270.102L241.532,303.85L261.531,337.598L241.532,371.346L261.531,405.094L241.532,438.843L261.531,472.591L241.548,506.312L241.551,506.317ZM618.643,675.026L600.087,643.713L562.976,643.713L544.42,675.026L562.976,706.338L600.087,706.338L618.643,675.026ZM558.642,506.339L540.086,475.026L502.975,475.026L484.419,506.339L502.975,537.651L540.086,537.651L558.642,506.339ZM498.638,202.606L480.083,171.294L442.971,171.294L424.416,202.606L442.971,233.918L480.083,233.918L498.638,202.606ZM798.641,236.354L780.085,205.042L742.974,205.042L724.418,236.354L742.974,267.667L780.085,267.667L798.641,236.354ZM438.646,506.339L420.091,475.026L382.979,475.026L364.424,506.339L382.979,537.651L420.091,537.651L438.646,506.339ZM318.648,776.27L300.092,744.958L262.981,744.958L244.425,776.27L262.981,807.583L300.092,807.583L318.648,776.27ZM378.643,202.606L360.087,171.294L322.976,171.294L304.42,202.606L322.976,233.918L360.087,233.918L378.643,202.606ZM1038.63,168.858L1020.08,137.545L982.968,137.545L964.412,168.858L982.968,200.17L1020.08,200.17L1038.63,168.858ZM138.649,337.598L120.093,306.286L82.982,306.286L64.427,337.598L82.982,368.911L120.093,368.911L138.649,337.598ZM678.646,911.262L660.09,879.95L622.979,879.95L604.423,911.262L622.979,942.575L660.09,942.575L678.646,911.262ZM678.646,506.339L660.09,475.026L622.979,475.026L604.423,506.339L622.979,537.651L660.09,537.651L678.646,506.339ZM198.652,708.774L180.097,677.462L142.985,677.462L124.43,708.774L142.985,740.086L180.097,740.086L198.652,708.774ZM678.646,641.278L660.09,609.965L622.979,609.965L604.423,641.278L622.979,672.59L660.09,672.59L678.646,641.278ZM1038.63,641.278L1020.08,609.965L982.968,609.965L964.412,641.278L982.968,672.59L1020.08,672.59L1038.63,641.278ZM558.642,843.766L540.086,812.454L502.975,812.454L484.419,843.766L502.975,875.079L540.086,875.079L558.642,843.766ZM918.64,708.774L900.084,677.462L862.973,677.462L844.417,708.774L862.973,740.086L900.084,740.086L918.64,708.774ZM738.638,675.026L720.082,643.713L682.971,643.713L664.415,675.026L682.971,706.338L720.082,706.338L738.638,675.026ZM1038.63,33.866L1020.08,2.553L982.968,2.553L964.412,33.866L982.968,65.178L1020.08,65.178L1038.63,33.866ZM678.646,236.354L660.09,205.042L622.979,205.042L604.423,236.354L622.979,267.667L660.09,267.667L678.646,236.354ZM738.638,472.591L720.082,441.278L682.971,441.278L664.415,472.591L682.971,503.903L720.082,503.903L738.638,472.591ZM438.646,843.766L420.091,812.454L382.979,812.454L364.424,843.766L382.979,875.079L420.091,875.079L438.646,843.766ZM78.652,371.346L60.096,340.034L22.985,340.034L4.429,371.346L22.985,402.659L60.096,402.659L78.652,371.346ZM78.652,236.354L60.096,205.042L22.985,205.042L4.429,236.354L22.985,267.667L60.096,267.667L78.652,236.354ZM1038.63,978.759L1020.08,947.446L982.968,947.446L964.412,978.759L982.968,1010.07L1020.08,1010.07L1038.63,978.759ZM78.652,303.85L60.096,272.538L22.985,272.538L4.429,303.85L22.985,335.163L60.096,335.163L78.652,303.85ZM78.652,438.843L60.096,407.53L22.985,407.53L4.429,438.843L22.985,470.155L60.096,470.155L78.652,438.843ZM258.644,540.034L240.089,508.721L202.978,508.721L184.422,540.034L202.978,571.346L240.089,571.346L258.644,540.034ZM198.652,911.262L180.097,879.95L142.985,879.95L124.43,911.262L142.985,942.575L180.097,942.575L198.652,911.262ZM378.643,877.514L360.087,846.202L322.976,846.202L304.42,877.514L322.976,908.827L360.087,908.827L378.643,877.514ZM138.649,405.094L120.093,373.782L82.982,373.782L64.427,405.094L82.982,436.407L120.093,436.407L138.649,405.094ZM1038.63,1046.26L1020.08,1014.94L982.968,1014.94L964.412,1046.26L982.968,1077.57L1020.08,1077.57L1038.63,1046.26ZM138.649,607.53L120.093,576.217L82.982,576.217L64.427,607.53L82.982,638.842L120.093,638.842L138.649,607.53ZM138.649,135.11L120.093,103.797L82.982,103.797L64.427,135.11L82.982,166.422L120.093,166.422L138.649,135.11ZM258.644,877.514L240.089,846.202L202.978,846.202L184.422,877.514L202.978,908.827L240.089,908.827L258.644,877.514ZM738.638,337.598L720.082,306.286L682.971,306.286L664.415,337.598L682.971,368.911L720.082,368.911L738.638,337.598ZM318.648,843.766L300.092,812.454L262.981,812.454L244.425,843.766L262.981,875.079L300.092,875.079L318.648,843.766ZM738.638,270.102L720.082,238.79L682.971,238.79L664.415,270.102L682.971,301.415L720.082,301.415L738.638,270.102ZM798.641,438.843L780.085,407.53L742.974,407.53L724.418,438.843L742.974,470.155L780.085,470.155L798.641,438.843ZM738.638,67.614L720.082,36.301L682.971,36.301L664.415,67.614L682.971,98.926L720.082,98.926L738.638,67.614ZM78.652,911.262L60.096,879.95L22.985,879.95L4.429,911.262L22.985,942.575L60.096,942.575L78.652,911.262ZM858.636,337.598L840.081,306.286L802.969,306.286L784.414,337.598L802.969,368.911L840.081,368.911L858.636,337.598ZM258.644,675.026L240.089,643.713L202.978,643.713L184.422,675.026L202.978,706.338L240.089,706.338L258.644,675.026ZM798.641,506.339L780.085,475.026L742.974,475.026L724.418,506.339L742.974,537.651L780.085,537.651L798.641,506.339ZM918.64,641.278L900.084,609.965L862.973,609.965L844.417,641.278L862.973,672.59L900.084,672.59L918.64,641.278ZM858.636,67.614L840.081,36.301L802.969,36.301L784.414,67.614L802.969,98.926L840.081,98.926L858.636,67.614ZM798.641,33.866L780.085,2.553L742.974,2.553L724.418,33.866L742.974,65.178L780.085,65.178L798.641,33.866ZM498.638,1012.51L480.083,981.194L442.971,981.194L424.416,1012.51L442.971,1043.82L480.083,1043.82L498.638,1012.51ZM378.643,540.034L360.087,508.721L322.976,508.721L304.42,540.034L322.976,571.346L360.087,571.346L378.643,540.034ZM198.652,1046.26L180.097,1014.94L142.985,1014.94L124.43,1046.26L142.985,1077.57L180.097,1077.57L198.652,1046.26ZM918.64,843.766L900.084,812.454L862.973,812.454L844.417,843.766L862.973,875.079L900.084,875.079L918.64,843.766ZM78.652,573.782L60.096,542.469L22.985,542.469L4.429,573.782L22.985,605.094L60.096,605.094L78.652,573.782ZM378.643,607.53L360.087,576.217L322.976,576.217L304.42,607.53L322.976,638.842L360.087,638.842L378.643,607.53ZM318.648,641.278L300.092,609.965L262.981,609.965L244.425,641.278L262.981,672.59L300.092,672.59L318.648,641.278ZM138.649,675.026L120.093,643.713L82.982,643.713L64.427,675.026L82.982,706.338L120.093,706.338L138.649,675.026ZM978.632,607.53L960.076,576.217L922.965,576.217L904.409,607.53L922.965,638.842L960.076,638.842L978.632,607.53ZM438.646,236.354L420.091,205.042L382.979,205.042L364.424,236.354L382.979,267.667L420.091,267.667L438.646,236.354ZM78.652,978.759L60.096,947.446L22.985,947.446L4.429,978.759L22.985,1010.07L60.096,1010.07L78.652,978.759ZM918.64,978.759L900.084,947.446L862.973,947.446L844.417,978.759L862.973,1010.07L900.084,1010.07L918.64,978.759ZM498.638,405.094L480.083,373.782L442.971,373.782L424.416,405.094L442.971,436.407L480.083,436.407L498.638,405.094ZM978.632,877.514L960.076,846.202L922.965,846.202L904.409,877.514L922.965,908.827L960.076,908.827L978.632,877.514ZM78.652,1046.26L60.096,1014.94L22.985,1014.94L4.429,1046.26L22.985,1077.57L60.096,1077.57L78.652,1046.26ZM978.632,810.018L960.076,778.706L922.965,778.706L904.409,810.018L922.965,841.331L960.076,841.331L978.632,810.018ZM858.636,202.606L840.081,171.294L802.969,171.294L784.414,202.606L802.969,233.918L840.081,233.918L858.636,202.606ZM1038.63,506.339L1020.08,475.026L982.968,475.026L964.412,506.339L982.968,537.651L1020.08,537.651L1038.63,506.339ZM558.642,1046.26L540.086,1014.94L502.975,1014.94L484.419,1046.26L502.975,1077.57L540.086,1077.57L558.642,1046.26ZM1038.63,843.766L1020.08,812.454L982.968,812.454L964.412,843.766L982.968,875.079L1020.08,875.079L1038.63,843.766ZM258.644,1012.51L240.089,981.194L202.978,981.194L184.422,1012.51L202.978,1043.82L240.089,1043.82L258.644,1012.51ZM1038.63,776.27L1020.08,744.958L982.968,744.958L964.412,776.27L982.968,807.583L1020.08,807.583L1038.63,776.27ZM318.648,978.759L300.092,947.446L262.981,947.446L244.425,978.759L262.981,1010.07L300.092,1010.07L318.648,978.759ZM258.644,945.011L240.089,913.698L202.978,913.698L184.422,945.011L202.978,976.323L240.089,976.323L258.644,945.011ZM918.64,1046.26L900.084,1014.94L862.973,1014.94L844.417,1046.26L862.973,1077.57L900.084,1077.57L918.64,1046.26ZM678.646,708.774L660.09,677.462L622.979,677.462L604.423,708.774L622.979,740.086L660.09,740.086L678.646,708.774ZM78.652,506.339L60.096,475.026L22.985,475.026L4.429,506.339L22.985,537.651L60.096,537.651L78.652,506.339ZM678.646,33.866L660.09,2.553L622.979,2.553L604.423,33.866L622.979,65.178L660.09,65.178L678.646,33.866ZM678.646,573.782L660.09,542.469L622.979,542.469L604.423,573.782L622.979,605.094L660.09,605.094L678.646,573.782ZM138.649,67.614L120.093,36.301L82.982,36.301L64.427,67.614L82.982,98.926L120.093,98.926L138.649,67.614ZM678.646,843.766L660.09,812.454L622.979,812.454L604.423,843.766L622.979,875.079L660.09,875.079L678.646,843.766ZM138.649,202.606L120.093,171.294L82.982,171.294L64.427,202.606L82.982,233.918L120.093,233.918L138.649,202.606ZM738.638,877.514L720.082,846.202L682.971,846.202L664.415,877.514L682.971,908.827L720.082,908.827L738.638,877.514ZM918.64,101.362L900.084,70.049L862.973,70.049L844.417,101.362L862.973,132.674L900.084,132.674L918.64,101.362ZM978.632,945.011L960.076,913.698L922.965,913.698L904.409,945.011L922.965,976.323L960.076,976.323L978.632,945.011ZM978.632,1012.51L960.076,981.194L922.965,981.194L904.409,1012.51L922.965,1043.82L960.076,1043.82L978.632,1012.51ZM378.643,810.018L360.087,778.706L322.976,778.706L304.42,810.018L322.976,841.331L360.087,841.331L378.643,810.018ZM498.638,742.522L480.083,711.21L442.971,711.21L424.416,742.522L442.971,773.834L480.083,773.834L498.638,742.522ZM858.636,540.034L840.081,508.721L802.969,508.721L784.414,540.034L802.969,571.346L840.081,571.346L858.636,540.034ZM738.638,742.522L720.082,711.21L682.971,711.21L664.415,742.522L682.971,773.834L720.082,773.834L738.638,742.522ZM978.632,337.598L960.076,306.286L922.965,306.286L904.409,337.598L922.965,368.911L960.076,368.911L978.632,337.598ZM738.638,607.53L720.082,576.217L682.971,576.217L664.415,607.53L682.971,638.842L720.082,638.842L738.638,607.53ZM858.636,135.11L840.081,103.797L802.969,103.797L784.414,135.11L802.969,166.422L840.081,166.422L858.636,135.11ZM858.636,270.102L840.081,238.79L802.969,238.79L784.414,270.102L802.969,301.415L840.081,301.415L858.636,270.102ZM438.646,168.858L420.091,137.545L382.979,137.545L364.424,168.858L382.979,200.17L420.091,200.17L438.646,168.858ZM1038.63,101.362L1020.08,70.049L982.968,70.049L964.412,101.362L982.968,132.674L1020.08,132.674L1038.63,101.362ZM378.643,405.094L360.087,373.782L322.976,373.782L304.42,405.094L322.976,436.407L360.087,436.407L378.643,405.094ZM318.648,101.362L300.092,70.049L262.981,70.049L244.425,101.362L262.981,132.674L300.092,132.674L318.648,101.362ZM318.648,168.858L300.092,137.545L262.981,137.545L244.425,168.858L262.981,200.17L300.092,200.17L318.648,168.858ZM318.648,33.866L300.092,2.553L262.981,2.553L244.425,33.866L262.981,65.178L300.092,65.178L318.648,33.866ZM318.648,236.354L300.092,205.042L262.981,205.042L244.425,236.354L262.981,267.667L300.092,267.667L318.648,236.354ZM121.556,506.317L141.542,472.591L121.543,438.843L141.542,405.094L121.543,371.346L141.542,337.598L121.543,303.85L141.542,270.102L121.543,236.354L141.542,202.606L121.543,168.858L141.542,135.11L121.543,101.362L141.542,67.614L121.543,33.866L141.525,0.147L141.521,0.142L121.537,33.866L141.536,67.614L121.537,101.362L141.536,135.11L121.537,168.858L141.536,202.606L121.537,236.354L141.536,270.102L121.537,303.85L141.536,337.598L121.537,371.346L141.536,405.094L121.537,438.843L141.536,472.591L121.553,506.312L121.556,506.317ZM918.64,371.346L900.084,340.034L862.973,340.034L844.417,371.346L862.973,402.659L900.084,402.659L918.64,371.346ZM361.55,506.317L381.536,472.591L361.537,438.843L381.536,405.094L361.537,371.346L381.536,337.598L361.537,303.85L381.536,270.102L361.537,236.354L381.536,202.606L361.537,168.858L381.536,135.11L361.537,101.362L381.536,67.614L361.537,33.866L381.518,0.147L381.515,0.142L361.531,33.866L381.53,67.614L361.531,101.362L381.53,135.11L361.531,168.858L381.53,202.606L361.531,236.354L381.53,270.102L361.531,303.85L381.53,337.598L361.531,371.346L381.53,405.094L361.531,438.843L381.53,472.591L361.547,506.312L361.55,506.317ZM678.646,776.27L660.09,744.958L622.979,744.958L604.423,776.27L622.979,807.583L660.09,807.583L678.646,776.27ZM558.642,33.866L540.086,2.553L502.975,2.553L484.419,33.866L502.975,65.178L540.086,65.178L558.642,33.866ZM678.646,1046.26L660.09,1014.94L622.979,1014.94L604.423,1046.26L622.979,1077.57L660.09,1077.57L678.646,1046.26ZM558.642,236.354L540.086,205.042L502.975,205.042L484.419,236.354L502.975,267.667L540.086,267.667L558.642,236.354ZM378.643,472.591L360.087,441.278L322.976,441.278L304.42,472.591L322.976,503.903L360.087,503.903L378.643,472.591ZM618.643,607.53L600.087,576.217L562.976,576.217L544.42,607.53L562.976,638.842L600.087,638.842L618.643,607.53ZM138.649,810.018L120.093,778.706L82.982,778.706L64.427,810.018L82.982,841.331L120.093,841.331L138.649,810.018ZM918.64,506.339L900.084,475.026L862.973,475.026L844.417,506.339L862.973,537.651L900.084,537.651L918.64,506.339ZM378.643,67.614L360.087,36.301L322.976,36.301L304.42,67.614L322.976,98.926L360.087,98.926L378.643,67.614ZM318.648,371.346L300.092,340.034L262.981,340.034L244.425,371.346L262.981,402.659L300.092,402.659L318.648,371.346ZM978.632,202.606L960.076,171.294L922.965,171.294L904.409,202.606L922.965,233.918L960.076,233.918L978.632,202.606ZM138.649,1012.51L120.093,981.194L82.982,981.194L64.427,1012.51L82.982,1043.82L120.093,1043.82L138.649,1012.51ZM78.652,776.27L60.096,744.958L22.985,744.958L4.429,776.27L22.985,807.583L60.096,807.583L78.652,776.27ZM618.643,202.606L600.087,171.294L562.976,171.294L544.42,202.606L562.976,233.918L600.087,233.918L618.643,202.606ZM558.642,641.278L540.086,609.965L502.975,609.965L484.419,641.278L502.975,672.59L540.086,672.59L558.642,641.278ZM558.642,573.782L540.086,542.469L502.975,542.469L484.419,573.782L502.975,605.094L540.086,605.094L558.642,573.782ZM378.643,742.522L360.087,711.21L322.976,711.21L304.42,742.522L322.976,773.834L360.087,773.834L378.643,742.522ZM858.636,675.026L840.081,643.713L802.969,643.713L784.414,675.026L802.969,706.338L840.081,706.338L858.636,675.026ZM498.638,607.53L480.083,576.217L442.971,576.217L424.416,607.53L442.971,638.842L480.083,638.842L498.638,607.53ZM721.544,506.317L741.531,472.591L721.532,438.843L741.531,405.094L721.532,371.346L741.531,337.598L721.532,303.85L741.531,270.102L721.532,236.354L741.531,202.606L721.532,168.858L741.531,135.11L721.532,101.362L741.531,67.614L721.532,33.866L741.513,0.147L741.51,0.142L721.526,33.866L741.525,67.614L721.526,101.362L741.525,135.11L721.526,168.858L741.525,202.606L721.526,236.354L741.525,270.102L721.526,303.85L741.525,337.598L721.526,371.346L741.525,405.094L721.526,438.843L741.525,472.591L721.541,506.312L721.544,506.317ZM198.652,978.759L180.097,947.446L142.985,947.446L124.43,978.759L142.985,1010.07L180.097,1010.07L198.652,978.759ZM198.652,371.346L180.097,340.034L142.985,340.034L124.43,371.346L142.985,402.659L180.097,402.659L198.652,371.346ZM318.648,303.85L300.092,272.538L262.981,272.538L244.425,303.85L262.981,335.163L300.092,335.163L318.648,303.85ZM318.648,1046.26L300.092,1014.94L262.981,1014.94L244.425,1046.26L262.981,1077.57L300.092,1077.57L318.648,1046.26ZM978.632,540.034L960.076,508.721L922.965,508.721L904.409,540.034L922.965,571.346L960.076,571.346L978.632,540.034ZM961.538,506.317L981.525,472.591L961.526,438.843L981.525,405.094L961.526,371.346L981.525,337.598L961.526,303.85L981.525,270.102L961.526,236.354L981.525,202.606L961.526,168.858L981.525,135.11L961.526,101.362L981.525,67.614L961.526,33.866L981.507,0.147L981.504,0.142L961.519,33.866L981.518,67.614L961.519,101.362L981.518,135.11L961.519,168.858L981.518,202.606L961.519,236.354L981.518,270.102L961.519,303.85L981.518,337.598L961.519,371.346L981.518,405.094L961.519,438.843L981.518,472.591L961.535,506.312L961.538,506.317ZM138.649,877.514L120.093,846.202L82.982,846.202L64.427,877.514L82.982,908.827L120.093,908.827L138.649,877.514ZM258.644,742.522L240.089,711.21L202.978,711.21L184.422,742.522L202.978,773.834L240.089,773.834L258.644,742.522ZM258.644,607.53L240.089,576.217L202.978,576.217L184.422,607.53L202.978,638.842L240.089,638.842L258.644,607.53ZM378.643,1012.51L360.087,981.194L322.976,981.194L304.42,1012.51L322.976,1043.82L360.087,1043.82L378.643,1012.51ZM198.652,573.782L180.097,542.469L142.985,542.469L124.43,573.782L142.985,605.094L180.097,605.094L198.652,573.782ZM858.636,810.018L840.081,778.706L802.969,778.706L784.414,810.018L802.969,841.331L840.081,841.331L858.636,810.018ZM558.642,978.759L540.086,947.446L502.975,947.446L484.419,978.759L502.975,1010.07L540.086,1010.07L558.642,978.759ZM438.646,371.346L420.091,340.034L382.979,340.034L364.424,371.346L382.979,402.659L420.091,402.659L438.646,371.346ZM378.643,135.11L360.087,103.797L322.976,103.797L304.42,135.11L322.976,166.422L360.087,166.422L378.643,135.11ZM438.646,1046.26L420.091,1014.94L382.979,1014.94L364.424,1046.26L382.979,1077.57L420.091,1077.57L438.646,1046.26ZM318.648,506.339L300.092,475.026L262.981,475.026L244.425,506.339L262.981,537.651L300.092,537.651L318.648,506.339ZM498.638,540.034L480.083,508.721L442.971,508.721L424.416,540.034L442.971,571.346L480.083,571.346L498.638,540.034ZM318.648,573.782L300.092,542.469L262.981,542.469L244.425,573.782L262.981,605.094L300.092,605.094L318.648,573.782ZM918.64,911.262L900.084,879.95L862.973,879.95L844.417,911.262L862.973,942.575L900.084,942.575L918.64,911.262ZM198.652,843.766L180.097,812.454L142.985,812.454L124.43,843.766L142.985,875.079L180.097,875.079L198.652,843.766ZM798.641,708.774L780.085,677.462L742.974,677.462L724.418,708.774L742.974,740.086L780.085,740.086L798.641,708.774ZM918.64,236.354L900.084,205.042L862.973,205.042L844.417,236.354L862.973,267.667L900.084,267.667L918.64,236.354ZM918.64,168.858L900.084,137.545L862.973,137.545L844.417,168.858L862.973,200.17L900.084,200.17L918.64,168.858ZM618.643,877.514L600.087,846.202L562.976,846.202L544.42,877.514L562.976,908.827L600.087,908.827L618.643,877.514ZM78.652,101.362L60.096,70.049L22.985,70.049L4.429,101.362L22.985,132.674L60.096,132.674L78.652,101.362ZM558.642,438.843L540.086,407.53L502.975,407.53L484.419,438.843L502.975,470.155L540.086,470.155L558.642,438.843ZM738.638,1012.51L720.082,981.194L682.971,981.194L664.415,1012.51L682.971,1043.82L720.082,1043.82L738.638,1012.51ZM78.652,641.278L60.096,609.965L22.985,609.965L4.429,641.278L22.985,672.59L60.096,672.59L78.652,641.278ZM978.632,472.591L960.076,441.278L922.965,441.278L904.409,472.591L922.965,503.903L960.076,503.903L978.632,472.591ZM798.641,371.346L780.085,340.034L742.974,340.034L724.418,371.346L742.974,402.659L780.085,402.659L798.641,371.346ZM618.643,135.11L600.087,103.797L562.976,103.797L544.42,135.11L562.976,166.422L600.087,166.422L618.643,135.11ZM678.646,371.346L660.09,340.034L622.979,340.034L604.423,371.346L622.979,402.659L660.09,402.659L678.646,371.346ZM1038.63,708.774L1020.08,677.462L982.968,677.462L964.412,708.774L982.968,740.086L1020.08,740.086L1038.63,708.774ZM618.643,337.598L600.087,306.286L562.976,306.286L544.42,337.598L562.976,368.911L600.087,368.911L618.643,337.598ZM501.515,540.06L501.512,540.055L481.526,573.782L501.525,607.53L481.526,641.278L501.525,675.026L481.526,708.774L501.525,742.522L481.526,776.27L501.525,810.018L481.526,843.766L501.525,877.514L481.526,911.262L501.525,945.011L481.526,978.759L501.525,1012.51L481.544,1046.22L481.547,1046.23L501.531,1012.51L481.532,978.759L501.531,945.011L481.532,911.262L501.531,877.514L481.532,843.766L501.531,810.018L481.532,776.27L501.531,742.522L481.532,708.774L501.531,675.026L481.532,641.278L501.531,607.53L481.532,573.782L501.515,540.06ZM618.643,270.102L600.087,238.79L562.976,238.79L544.42,270.102L562.976,301.415L600.087,301.415L618.643,270.102ZM741.515,540.06L741.512,540.055L721.526,573.782L741.525,607.53L721.526,641.278L741.525,675.026L721.526,708.774L741.525,742.522L721.526,776.27L741.525,810.018L721.526,843.766L741.525,877.514L721.526,911.262L741.525,945.011L721.526,978.759L741.525,1012.51L721.543,1046.22L721.546,1046.23L741.531,1012.51L721.532,978.759L741.531,945.011L721.532,911.262L741.531,877.514L721.532,843.766L741.531,810.018L721.532,776.27L741.531,742.522L721.532,708.774L741.531,675.026L721.532,641.278L741.531,607.53L721.532,573.782L741.515,540.06ZM558.642,303.85L540.086,272.538L502.975,272.538L484.419,303.85L502.975,335.163L540.086,335.163L558.642,303.85ZM978.632,270.102L960.076,238.79L922.965,238.79L904.409,270.102L922.965,301.415L960.076,301.415L978.632,270.102ZM438.646,438.843L420.091,407.53L382.979,407.53L364.424,438.843L382.979,470.155L420.091,470.155L438.646,438.843ZM198.652,438.843L180.097,407.53L142.985,407.53L124.43,438.843L142.985,470.155L180.097,470.155L198.652,438.843ZM138.649,540.034L120.093,508.721L82.982,508.721L64.427,540.034L82.982,571.346L120.093,571.346L138.649,540.034ZM498.638,877.514L480.083,846.202L442.971,846.202L424.416,877.514L442.971,908.827L480.083,908.827L498.638,877.514ZM198.652,776.27L180.097,744.958L142.985,744.958L124.43,776.27L142.985,807.583L180.097,807.583L198.652,776.27ZM798.641,641.278L780.085,609.965L742.974,609.965L724.418,641.278L742.974,672.59L780.085,672.59L798.641,641.278ZM498.638,675.026L480.083,643.713L442.971,643.713L424.416,675.026L442.971,706.338L480.083,706.338L498.638,675.026ZM78.652,168.858L60.096,137.545L22.985,137.545L4.429,168.858L22.985,200.17L60.096,200.17L78.652,168.858ZM738.638,810.018L720.082,778.706L682.971,778.706L664.415,810.018L682.971,841.331L720.082,841.331L738.638,810.018ZM498.638,810.018L480.083,778.706L442.971,778.706L424.416,810.018L442.971,841.331L480.083,841.331L498.638,810.018ZM978.632,675.026L960.076,643.713L922.965,643.713L904.409,675.026L922.965,706.338L960.076,706.338L978.632,675.026ZM138.649,742.522L120.093,711.21L82.982,711.21L64.427,742.522L82.982,773.834L120.093,773.834L138.649,742.522ZM378.643,675.026L360.087,643.713L322.976,643.713L304.42,675.026L322.976,706.338L360.087,706.338L378.643,675.026ZM378.643,270.102L360.087,238.79L322.976,238.79L304.42,270.102L322.976,301.415L360.087,301.415L378.643,270.102ZM438.646,33.866L420.091,2.553L382.979,2.553L364.424,33.866L382.979,65.178L420.091,65.178L438.646,33.866ZM198.652,168.858L180.097,137.545L142.985,137.545L124.43,168.858L142.985,200.17L180.097,200.17L198.652,168.858ZM558.642,708.774L540.086,677.462L502.975,677.462L484.419,708.774L502.975,740.086L540.086,740.086L558.642,708.774ZM438.646,708.774L420.091,677.462L382.979,677.462L364.424,708.774L382.979,740.086L420.091,740.086L438.646,708.774ZM841.543,506.317L861.529,472.591L841.53,438.843L861.529,405.094L841.53,371.346L861.529,337.598L841.53,303.85L861.529,270.102L841.53,236.354L861.529,202.606L841.53,168.858L861.529,135.11L841.53,101.362L861.529,67.614L841.53,33.866L861.512,0.147L861.509,0.142L841.524,33.866L861.523,67.614L841.524,101.362L861.523,135.11L841.524,168.858L861.523,202.606L841.524,236.354L861.523,270.102L841.524,303.85L861.523,337.598L841.524,371.346L861.523,405.094L841.524,438.843L861.523,472.591L841.54,506.312L841.543,506.317ZM381.52,540.06L381.517,540.055L361.531,573.782L381.53,607.53L361.531,641.278L381.53,675.026L361.531,708.774L381.53,742.522L361.531,776.27L381.53,810.018L361.531,843.766L381.53,877.514L361.531,911.262L381.53,945.011L361.531,978.759L381.53,1012.51L361.548,1046.22L361.551,1046.23L381.536,1012.51L361.537,978.759L381.536,945.011L361.537,911.262L381.536,877.514L361.537,843.766L381.536,810.018L361.537,776.27L381.536,742.522L361.537,708.774L381.536,675.026L361.537,641.278L381.536,607.53L361.537,573.782L381.52,540.06ZM798.641,1046.26L780.085,1014.94L742.974,1014.94L724.418,1046.26L742.974,1077.57L780.085,1077.57L798.641,1046.26ZM798.641,978.759L780.085,947.446L742.974,947.446L724.418,978.759L742.974,1010.07L780.085,1010.07L798.641,978.759ZM858.636,877.514L840.081,846.202L802.969,846.202L784.414,877.514L802.969,908.827L840.081,908.827L858.636,877.514ZM918.64,438.843L900.084,407.53L862.973,407.53L844.417,438.843L862.973,470.155L900.084,470.155L918.64,438.843ZM798.641,573.782L780.085,542.469L742.974,542.469L724.418,573.782L742.974,605.094L780.085,605.094L798.641,573.782ZM198.652,236.354L180.097,205.042L142.985,205.042L124.43,236.354L142.985,267.667L180.097,267.667L198.652,236.354ZM318.648,911.262L300.092,879.95L262.981,879.95L244.425,911.262L262.981,942.575L300.092,942.575L318.648,911.262ZM858.636,607.53L840.081,576.217L802.969,576.217L784.414,607.53L802.969,638.842L840.081,638.842L858.636,607.53ZM618.643,405.094L600.087,373.782L562.976,373.782L544.42,405.094L562.976,436.407L600.087,436.407L618.643,405.094ZM378.643,337.598L360.087,306.286L322.976,306.286L304.42,337.598L322.976,368.911L360.087,368.911L378.643,337.598ZM1038.63,236.354L1020.08,205.042L982.968,205.042L964.412,236.354L982.968,267.667L1020.08,267.667L1038.63,236.354ZM258.644,810.018L240.089,778.706L202.978,778.706L184.422,810.018L202.978,841.331L240.089,841.331L258.644,810.018ZM558.642,911.262L540.086,879.95L502.975,879.95L484.419,911.262L502.975,942.575L540.086,942.575L558.642,911.262ZM198.652,33.866L180.097,2.553L142.985,2.553L124.43,33.866L142.985,65.178L180.097,65.178L198.652,33.866ZM978.632,67.614L960.076,36.301L922.965,36.301L904.409,67.614L922.965,98.926L960.076,98.926L978.632,67.614ZM858.636,945.011L840.081,913.698L802.969,913.698L784.414,945.011L802.969,976.323L840.081,976.323L858.636,945.011ZM1.555,506.317L21.542,472.591L1.543,438.843L21.542,405.094L1.543,371.346L21.542,337.598L1.543,303.85L21.542,270.102L1.543,236.354L21.542,202.606L1.543,168.858L21.542,135.11L1.543,101.362L21.542,67.614L1.543,33.866L21.524,0.147L21.521,0.142L1.537,33.866L21.536,67.614L1.537,101.362L21.536,135.11L1.537,168.858L21.536,202.606L1.537,236.354L21.536,270.102L1.537,303.85L21.536,337.598L1.537,371.346L21.536,405.094L1.537,438.843L21.536,472.591L1.552,506.312L1.555,506.317ZM438.646,573.782L420.091,542.469L382.979,542.469L364.424,573.782L382.979,605.094L420.091,605.094L438.646,573.782ZM981.509,540.06L981.506,540.055L961.519,573.782L981.518,607.53L961.519,641.278L981.518,675.026L961.519,708.774L981.518,742.522L961.519,776.27L981.518,810.018L961.519,843.766L981.518,877.514L961.519,911.262L981.518,945.011L961.519,978.759L981.518,1012.51L961.537,1046.22L961.54,1046.23L981.525,1012.51L961.526,978.759L981.525,945.011L961.526,911.262L981.525,877.514L961.526,843.766L981.525,810.018L961.526,776.27L981.525,742.522L961.526,708.774L981.525,675.026L961.526,641.278L981.525,607.53L961.526,573.782L981.509,540.06ZM438.646,776.27L420.091,744.958L382.979,744.958L364.424,776.27L382.979,807.583L420.091,807.583L438.646,776.27ZM558.642,776.27L540.086,744.958L502.975,744.958L484.419,776.27L502.975,807.583L540.086,807.583L558.642,776.27ZM678.646,168.858L660.09,137.545L622.979,137.545L604.423,168.858L622.979,200.17L660.09,200.17L678.646,168.858ZM1038.63,573.782L1020.08,542.469L982.968,542.469L964.412,573.782L982.968,605.094L1020.08,605.094L1038.63,573.782ZM978.632,742.522L960.076,711.21L922.965,711.21L904.409,742.522L922.965,773.834L960.076,773.834L978.632,742.522ZM1038.63,303.85L1020.08,272.538L982.968,272.538L964.412,303.85L982.968,335.163L1020.08,335.163L1038.63,303.85ZM561.516,506.312L541.533,472.591L561.532,438.843L541.533,405.094L561.532,371.346L541.533,337.598L561.532,303.85L541.533,270.102L561.532,236.354L541.533,202.606L561.532,168.858L541.533,135.11L561.532,101.362L541.533,67.614L561.532,33.866L541.549,0.144L541.547,0.147L561.528,33.866L541.529,67.614L561.528,101.362L541.529,135.11L561.528,168.858L541.529,202.606L561.528,236.354L541.529,270.102L561.528,303.85L541.529,337.598L561.528,371.346L541.529,405.094L561.528,438.843L541.529,472.591L561.514,506.315L561.516,506.312ZM21.526,540.06L21.523,540.055L1.537,573.782L21.536,607.53L1.537,641.278L21.536,675.026L1.537,708.774L21.536,742.522L1.537,776.27L21.536,810.018L1.537,843.766L21.536,877.514L1.537,911.262L21.536,945.011L1.537,978.759L21.536,1012.51L1.554,1046.22L1.557,1046.23L21.542,1012.51L1.543,978.759L21.542,945.011L1.543,911.262L21.542,877.514L1.543,843.766L21.542,810.018L1.543,776.27L21.542,742.522L1.543,708.774L21.542,675.026L1.543,641.278L21.542,607.53L1.543,573.782L21.526,540.06ZM78.652,708.774L60.096,677.462L22.985,677.462L4.429,708.774L22.985,740.086L60.096,740.086L78.652,708.774ZM318.648,708.774L300.092,677.462L262.981,677.462L244.425,708.774L262.981,740.086L300.092,740.086L318.648,708.774ZM138.649,270.102L120.093,238.79L82.982,238.79L64.427,270.102L82.982,301.415L120.093,301.415L138.649,270.102ZM378.643,945.011L360.087,913.698L322.976,913.698L304.42,945.011L322.976,976.323L360.087,976.323L378.643,945.011ZM258.644,67.614L240.089,36.301L202.978,36.301L184.422,67.614L202.978,98.926L240.089,98.926L258.644,67.614ZM858.636,1012.51L840.081,981.194L802.969,981.194L784.414,1012.51L802.969,1043.82L840.081,1043.82L858.636,1012.51ZM258.644,202.606L240.089,171.294L202.978,171.294L184.422,202.606L202.978,233.918L240.089,233.918L258.644,202.606ZM918.64,33.866L900.084,2.553L862.973,2.553L844.417,33.866L862.973,65.178L900.084,65.178L918.64,33.866ZM438.646,911.262L420.091,879.95L382.979,879.95L364.424,911.262L382.979,942.575L420.091,942.575L438.646,911.262ZM541.547,540.057L541.545,540.06L561.528,573.782L541.529,607.53L561.528,641.278L541.529,675.026L561.528,708.774L541.529,742.522L561.528,776.27L541.529,810.018L561.528,843.766L541.529,877.514L561.528,911.262L541.529,945.011L561.528,978.759L541.529,1012.51L561.513,1046.23L561.515,1046.22L541.533,1012.51L561.532,978.759L541.533,945.011L561.532,911.262L541.533,877.514L561.532,843.766L541.533,810.018L561.532,776.27L541.533,742.522L561.532,708.774L541.533,675.026L561.532,641.278L541.533,607.53L561.532,573.782L541.547,540.057ZM798.641,843.766L780.085,812.454L742.974,812.454L724.418,843.766L742.974,875.079L780.085,875.079L798.641,843.766ZM798.641,911.262L780.085,879.95L742.974,879.95L724.418,911.262L742.974,942.575L780.085,942.575L798.641,911.262ZM258.644,405.094L240.089,373.782L202.978,373.782L184.422,405.094L202.978,436.407L240.089,436.407L258.644,405.094ZM798.641,776.27L780.085,744.958L742.974,744.958L724.418,776.27L742.974,807.583L780.085,807.583L798.641,776.27ZM798.641,303.85L780.085,272.538L742.974,272.538L724.418,303.85L742.974,335.163L780.085,335.163L798.641,303.85ZM498.638,135.11L480.083,103.797L442.971,103.797L424.416,135.11L442.971,166.422L480.083,166.422L498.638,135.11ZM258.644,337.598L240.089,306.286L202.978,306.286L184.422,337.598L202.978,368.911L240.089,368.911L258.644,337.598ZM258.644,135.11L240.089,103.797L202.978,103.797L184.422,135.11L202.978,166.422L240.089,166.422L258.644,135.11ZM618.643,945.011L600.087,913.698L562.976,913.698L544.42,945.011L562.976,976.323L600.087,976.323L618.643,945.011ZM861.514,540.06L861.51,540.055L841.524,573.782L861.523,607.53L841.524,641.278L861.523,675.026L841.524,708.774L861.523,742.522L841.524,776.27L861.523,810.018L841.524,843.766L861.523,877.514L841.524,911.262L861.523,945.011L841.524,978.759L861.523,1012.51L841.542,1046.22L841.545,1046.23L861.529,1012.51L841.53,978.759L861.529,945.011L841.53,911.262L861.529,877.514L841.53,843.766L861.529,810.018L841.53,776.27L861.529,742.522L841.53,708.774L861.529,675.026L841.53,641.278L861.529,607.53L841.53,573.782L861.514,540.06ZM198.652,101.362L180.097,70.049L142.985,70.049L124.43,101.362L142.985,132.674L180.097,132.674L198.652,101.362ZM678.646,438.843L660.09,407.53L622.979,407.53L604.423,438.843L622.979,470.155L660.09,470.155L678.646,438.843ZM258.644,472.591L240.089,441.278L202.978,441.278L184.422,472.591L202.978,503.903L240.089,503.903L258.644,472.591ZM918.64,303.85L900.084,272.538L862.973,272.538L844.417,303.85L862.973,335.163L900.084,335.163L918.64,303.85ZM258.644,270.102L240.089,238.79L202.978,238.79L184.422,270.102L202.978,301.415L240.089,301.415L258.644,270.102ZM198.652,303.85L180.097,272.538L142.985,272.538L124.43,303.85L142.985,335.163L180.097,335.163L198.652,303.85ZM978.632,135.11L960.076,103.797L922.965,103.797L904.409,135.11L922.965,166.422L960.076,166.422L978.632,135.11ZM498.638,67.614L480.083,36.301L442.971,36.301L424.416,67.614L442.971,98.926L480.083,98.926L498.638,67.614ZM481.545,506.317L501.531,472.591L481.532,438.843L501.531,405.094L481.532,371.346L501.531,337.598L481.532,303.85L501.531,270.102L481.532,236.354L501.531,202.606L481.532,168.858L501.531,135.11L481.532,101.362L501.531,67.614L481.532,33.866L501.514,0.147L501.511,0.142L481.526,33.866L501.525,67.614L481.526,101.362L501.525,135.11L481.526,168.858L501.525,202.606L481.526,236.354L501.525,270.102L481.526,303.85L501.525,337.598L481.526,371.346L501.525,405.094L481.526,438.843L501.525,472.591L481.542,506.312L481.545,506.317ZM601.549,506.317L621.535,472.591L601.536,438.843L621.535,405.094L601.536,371.346L621.535,337.598L601.536,303.85L621.535,270.102L601.536,236.354L621.535,202.606L601.536,168.858L621.535,135.11L601.536,101.362L621.535,67.614L601.536,33.866L621.518,0.147L621.515,0.142L601.53,33.866L621.529,67.614L601.53,101.362L621.529,135.11L601.53,168.858L621.529,202.606L601.53,236.354L621.529,270.102L601.53,303.85L621.529,337.598L601.53,371.346L621.529,405.094L601.53,438.843L621.529,472.591L601.546,506.312L601.549,506.317ZM438.646,101.362L420.091,70.049L382.979,70.049L364.424,101.362L382.979,132.674L420.091,132.674L438.646,101.362ZM618.643,472.591L600.087,441.278L562.976,441.278L544.42,472.591L562.976,503.903L600.087,503.903L618.643,472.591ZM618.643,67.614L600.087,36.301L562.976,36.301L544.42,67.614L562.976,98.926L600.087,98.926L618.643,67.614ZM318.648,438.843L300.092,407.53L262.981,407.53L244.425,438.843L262.981,470.155L300.092,470.155L318.648,438.843ZM978.632,405.094L960.076,373.782L922.965,373.782L904.409,405.094L922.965,436.407L960.076,436.407L978.632,405.094ZM498.638,945.011L480.083,913.698L442.971,913.698L424.416,945.011L442.971,976.323L480.083,976.323L498.638,945.011ZM198.652,641.278L180.097,609.965L142.985,609.965L124.43,641.278L142.985,672.59L180.097,672.59L198.652,641.278ZM1038.63,911.262L1020.08,879.95L982.968,879.95L964.412,911.262L982.968,942.575L1020.08,942.575L1038.63,911.262ZM618.643,810.018L600.087,778.706L562.976,778.706L544.42,810.018L562.976,841.331L600.087,841.331L618.643,810.018ZM198.652,506.339L180.097,475.026L142.985,475.026L124.43,506.339L142.985,537.651L180.097,537.651L198.652,506.339ZM858.636,742.522L840.081,711.21L802.969,711.21L784.414,742.522L802.969,773.834L840.081,773.834L858.636,742.522ZM1038.63,438.843L1020.08,407.53L982.968,407.53L964.412,438.843L982.968,470.155L1020.08,470.155L1038.63,438.843ZM498.638,337.598L480.083,306.286L442.971,306.286L424.416,337.598L442.971,368.911L480.083,368.911L498.638,337.598ZM918.64,776.27L900.084,744.958L862.973,744.958L844.417,776.27L862.973,807.583L900.084,807.583L918.64,776.27Z" style="fill:rgb(255, 173, 8);"/>
        </g>
    </g>
</svg>
