<?xml version="1.0" encoding="UTF-8" standalone="no"?>
<!DOCTYPE svg PUBLIC "-//W3C//DTD SVG 1.1//EN" "http://www.w3.org/Graphics/SVG/1.1/DTD/svg11.dtd">
<svg width="100%" height="100%" viewBox="0 0 1620 1620" version="1.1" xmlns="http://www.w3.org/2000/svg" xmlns:xlink="http://www.w3.org/1999/xlink" xml:space="preserve" xmlns:serif="http://www.serif.com/" style="fill-rule:evenodd;clip-rule:evenodd;stroke-linejoin:round;stroke-miterlimit:2;">
    <g transform="matrix(1,0,0,1,-910,270)">
        <g transform="matrix(1,0,0,1,1180,0)">
            <g transform="matrix(-0.199108,0,0,0.174681,2613.52,-1082.26)">
                <path d="M6345.9,13924L6621.13,13924L6621.02,13923.8L6621.04,13923.8L6621.18,13924L6641.78,13924L6641.54,13923.6L6773.97,13654.7L7038.82,13654.7L7171.25,13923.6L7171.01,13924L7477.55,13924L7477.43,13923.8L7477.46,13923.8L7477.59,13924L7498.19,13924L7497.95,13923.6L7630.38,13654.7L7895.24,13654.7L8027.66,13923.6L8027.43,13924L8333.92,13924L8333.81,13923.8L8333.83,13923.8L8333.97,13924L8354.57,13924L8354.33,13923.6L8486.76,13654.7L8751.61,13654.7L8884.04,13923.6L8883.8,13924L9190.32,13924L9190.21,13923.8L9190.23,13923.8L9190.37,13924L9210.97,13924L9210.73,13923.6L9343.16,13654.7L9608.01,13654.7L9740.44,13923.6L9740.2,13924L10046.7,13924L10046.6,13923.8L10046.6,13923.8L10046.7,13924L10067.3,13924L10067.1,13923.6L10199.5,13654.7L10464.4,13654.7L10596.8,13923.6L10596.6,13924L10617.2,13924L10617.3,13923.8L10617.3,13923.8L10617.2,13924L10903.1,13924L10903,13923.8L10903,13923.8L10903.2,13924L10923.8,13924L10923.5,13923.6L11056,13654.7L11320.8,13654.7L11453.3,13923.6L11453,13924L11759.5,13924L11759.4,13923.8L11759.4,13923.8L11759.6,13924L11780.2,13924L11779.9,13923.6L11912.4,13654.7L12177.2,13654.7L12309.6,13923.6L12309.4,13924L12615.9,13924L12615.8,13923.8L12615.8,13923.8L12616,13924L12636.6,13924L12636.3,13923.6L12768.8,13654.7L13033.6,13654.7L13166,13923.6L13165.8,13924L13472.3,13924L13472.2,13923.8L13472.2,13923.8L13472.3,13924L13492.9,13924L13492.7,13923.6L13625.1,13654.7L13890,13654.7L14022.4,13923.6L14022.2,13924L14328.7,13924L14328.6,13923.8L14328.6,13923.8L14328.7,13924L14349.4,13924L14349.1,13923.6L14481.5,13654.7L14482.2,13654.7L14482.2,13613.4L14481.5,13613.4L14349.1,13344.5L14481.5,13075.6L14482.2,13075.6L14482.2,13033.8L14481.5,13033.8L14349.1,12764.9L14481.5,12496L14482.2,12496L14482.2,12454.2L14481.5,12454.2L14349.1,12185.3L14481.5,11916.4L14482.2,11916.4L14482.2,11874.6L14481.5,11874.6L14349.1,11605.7L14481.5,11336.8L14482.2,11336.8L14482.2,11295L14481.5,11295L14349.1,11026.1L14481.5,10757.2L14482.2,10757.2L14482.2,10715.4L14481.5,10715.4L14349.1,10446.5L14481.5,10177.6L14482.2,10177.6L14482.2,10135.8L14481.5,10135.8L14349.1,9866.9L14481.5,9598.02L14482.2,9598.02L14482.2,9556.19L14481.5,9556.19L14349.1,9287.31L14481.5,9018.42L14482.2,9018.42L14482.2,8977.05L14481.5,8977.05L14349.1,8708.17L14481.5,8439.28L14482.2,8439.28L14482.2,8397.45L14481.5,8397.45L14349.1,8128.57L14481.5,7859.69L14482.2,7859.69L14482.2,7817.86L14481.5,7817.86L14349.1,7548.98L14481.5,7280.09L14482.2,7280.09L14482.2,7238.26L14481.5,7238.26L14349.1,6969.38L14481.5,6700.5L14482.2,6700.5L14482.2,6658.67L14481.5,6658.67L14349.1,6389.78L14481.5,6120.9L14482.2,6120.9L14482.2,6079.07L14481.5,6079.07L14349.1,5810.19L14481.5,5541.3L14482.2,5541.3L14482.2,5499.47L14481.5,5499.47L14349.1,5230.59L14481.5,4961.71L14482.2,4961.71L14482.2,4919.88L14481.5,4919.88L14349.1,4651L14349.6,4649.99L14021.9,4649.99L14022.4,4651L13890,4919.88L13625.1,4919.88L13492.7,4651L13493.2,4649.99L13165.5,4649.99L13166,4651L13033.6,4919.88L12768.8,4919.88L12636.3,4651L12636.8,4649.99L12309.1,4649.99L12309.6,4651L12177.2,4919.88L11912.4,4919.88L11779.9,4651L11780.4,4649.99L11452.8,4649.99L11453.3,4651L11320.8,4919.88L11056,4919.88L10923.5,4651L10924,4649.99L10596.3,4649.99L10596.8,4651L10464.4,4919.88L10199.5,4919.88L10067.1,4651L10067.6,4649.99L9739.94,4649.99L9740.44,4651L9608.01,4919.88L9343.16,4919.88L9210.73,4651L9211.23,4649.99L8883.54,4649.99L8884.04,4651L8751.61,4919.88L8486.76,4919.88L8354.33,4651L8354.83,4649.99L8027.17,4649.99L8027.66,4651L7895.24,4919.88L7630.38,4919.88L7497.95,4651L7498.45,4649.99L7170.75,4649.99L7171.25,4651L7038.82,4919.88L6773.97,4919.88L6641.54,4651L6642.04,4649.99L6345.9,4649.99L6345.9,4671.91L6610.6,4671.91L6743.02,4940.79L6610.6,5209.68L6345.9,5209.68L6345.9,5251.51L6610.6,5251.51L6743.02,5520.39L6610.6,5789.27L6345.9,5789.27L6345.9,5831.1L6610.6,5831.1L6743.02,6099.98L6610.6,6368.87L6345.9,6368.87L6345.9,6410.7L6610.6,6410.7L6743.02,6679.58L6610.6,6948.46L6345.9,6948.46L6345.9,6990.29L6610.6,6990.29L6743.02,7259.18L6610.6,7528.06L6345.9,7528.06L6345.9,7569.89L6610.6,7569.89L6743.02,7838.77L6610.6,8107.65L6345.9,8107.65L6345.9,8149.49L6610.6,8149.49L6743.02,8418.37L6610.6,8687.25L6345.9,8687.25L6345.9,8729.08L6610.6,8729.08L6743.02,8997.96L6610.6,9266.85L6345.9,9266.85L6345.9,9308.22L6610.6,9308.22L6743.02,9577.1L6610.6,9845.99L6345.9,9845.99L6345.9,9887.82L6610.6,9887.82L6743.02,10156.7L6610.6,10425.6L6345.9,10425.6L6345.9,10467.4L6610.6,10467.4L6743.02,10736.3L6610.6,11005.2L6345.9,11005.2L6345.9,11047L6610.6,11047L6743.02,11315.9L6610.6,11584.8L6345.9,11584.8L6345.9,11626.6L6610.6,11626.6L6743.02,11895.5L6610.6,12164.4L6345.9,12164.4L6345.9,12206.2L6610.6,12206.2L6743.02,12475.1L6610.6,12744L6345.9,12744L6345.9,12785.8L6610.6,12785.8L6743.02,13054.7L6610.6,13323.6L6345.9,13323.6L6345.9,13365.4L6610.6,13365.4L6743.02,13634.3L6610.6,13903.2L6345.9,13903.2L6345.9,13924ZM10923.5,9866.9L11056,9598.02L11320.8,9598.02L11453.3,9866.9L11320.8,10135.8L11056,10135.8L10923.5,9866.9ZM6763.53,8997.78L6620.9,8708.17L6763.62,8418.37L6620.9,8128.57L6763.62,7838.77L6620.9,7548.98L6763.62,7259.18L6620.9,6969.38L6763.62,6679.58L6620.9,6389.78L6763.62,6099.98L6620.9,5810.19L6763.62,5520.39L6620.9,5230.59L6763.62,4940.79L6621.02,4651.25L6621.04,4651.2L6763.67,4940.79L6620.94,5230.59L6763.67,5520.39L6620.94,5810.19L6763.67,6099.98L6620.94,6389.78L6763.67,6679.58L6620.94,6969.38L6763.67,7259.18L6620.94,7548.98L6763.67,7838.77L6620.94,8128.57L6763.67,8418.37L6620.94,8708.17L6763.56,8997.74L6763.53,8997.78ZM10067.1,6389.78L10199.5,6120.9L10464.4,6120.9L10596.8,6389.78L10464.4,6658.67L10199.5,6658.67L10067.1,6389.78ZM10495.3,9577.1L10627.7,9308.22L10892.6,9308.22L11025,9577.1L10892.6,9845.99L10627.7,9845.99L10495.3,9577.1ZM8354.33,10446.5L8486.76,10177.6L8751.61,10177.6L8884.04,10446.5L8751.61,10715.4L8486.76,10715.4L8354.33,10446.5ZM8354.33,11026.1L8486.76,10757.2L8751.61,10757.2L8884.04,11026.1L8751.61,11295L8486.76,11295L8354.33,11026.1ZM10495.3,10156.7L10627.7,9887.82L10892.6,9887.82L11025,10156.7L10892.6,10425.6L10627.7,10425.6L10495.3,10156.7ZM10495.3,12475.1L10627.7,12206.2L10892.6,12206.2L11025,12475.1L10892.6,12744L10627.7,12744L10495.3,12475.1ZM11779.9,13344.5L11912.4,13075.6L12177.2,13075.6L12309.6,13344.5L12177.2,13613.4L11912.4,13613.4L11779.9,13344.5ZM13064.5,9577.1L13196.9,9308.22L13461.8,9308.22L13594.2,9577.1L13461.8,9845.99L13196.9,9845.99L13064.5,9577.1ZM13920.9,11315.9L14053.3,11047L14318.2,11047L14450.6,11315.9L14318.2,11584.8L14053.3,11584.8L13920.9,11315.9ZM10067.1,5810.19L10199.5,5541.3L10464.4,5541.3L10596.8,5810.19L10464.4,6079.07L10199.5,6079.07L10067.1,5810.19ZM7926.1,5520.39L8058.53,5251.51L8323.39,5251.51L8455.81,5520.39L8323.39,5789.27L8058.53,5789.27L7926.1,5520.39ZM11779.9,11026.1L11912.4,10757.2L12177.2,10757.2L12309.6,11026.1L12177.2,11295L11912.4,11295L11779.9,11026.1ZM6621.01,9287.53L6621.03,9287.49L6763.67,9577.1L6620.94,9866.9L6763.67,10156.7L6620.94,10446.5L6763.67,10736.3L6620.94,11026.1L6763.67,11315.9L6620.94,11605.7L6763.67,11895.5L6620.94,12185.3L6763.67,12475.1L6620.94,12764.9L6763.67,13054.7L6620.94,13344.5L6763.55,13634L6763.52,13634.1L6620.9,13344.5L6763.62,13054.7L6620.9,12764.9L6763.62,12475.1L6620.9,12185.3L6763.62,11895.5L6620.9,11605.7L6763.62,11315.9L6620.9,11026.1L6763.62,10736.3L6620.9,10446.5L6763.62,10156.7L6620.9,9866.9L6763.62,9577.1L6621.01,9287.53ZM13064.5,7259.18L13196.9,6990.29L13461.8,6990.29L13594.2,7259.18L13461.8,7528.06L13196.9,7528.06L13064.5,7259.18ZM10495.3,13634.3L10627.7,13365.4L10892.6,13365.4L11025,13634.3L10892.6,13903.2L10627.7,13903.2L10495.3,13634.3ZM12636.3,11605.7L12768.8,11336.8L13033.6,11336.8L13166,11605.7L13033.6,11874.6L12768.8,11874.6L12636.3,11605.7ZM8354.33,11605.7L8486.76,11336.8L8751.61,11336.8L8884.04,11605.7L8751.61,11874.6L8486.76,11874.6L8354.33,11605.7ZM10495.3,13054.7L10627.7,12785.8L10892.6,12785.8L11025,13054.7L10892.6,13323.6L10627.7,13323.6L10495.3,13054.7ZM7497.95,12764.9L7630.38,12496L7895.24,12496L8027.66,12764.9L7895.24,13033.8L7630.38,13033.8L7497.95,12764.9ZM6641.54,11026.1L6773.97,10757.2L7038.82,10757.2L7171.25,11026.1L7038.82,11295L6773.97,11295L6641.54,11026.1ZM7497.95,13344.5L7630.38,13075.6L7895.24,13075.6L8027.66,13344.5L7895.24,13613.4L7630.38,13613.4L7497.95,13344.5ZM9638.88,7838.77L9771.31,7569.89L10036.2,7569.89L10168.6,7838.77L10036.2,8107.65L9771.31,8107.65L9638.88,7838.77ZM7069.73,10736.3L7202.15,10467.4L7467.01,10467.4L7599.44,10736.3L7467.01,11005.2L7202.15,11005.2L7069.73,10736.3ZM7926.1,7259.18L8058.53,6990.29L8323.39,6990.29L8455.81,7259.18L8323.39,7528.06L8058.53,7528.06L7926.1,7259.18ZM12636.3,6969.38L12768.8,6700.5L13033.6,6700.5L13166,6969.38L13033.6,7238.26L12768.8,7238.26L12636.3,6969.38ZM9638.88,6099.98L9771.31,5831.1L10036.2,5831.1L10168.6,6099.98L10036.2,6368.87L9771.31,6368.87L9638.88,6099.98ZM7069.73,9577.1L7202.15,9308.22L7467.01,9308.22L7599.44,9577.1L7467.01,9845.99L7202.15,9845.99L7069.73,9577.1ZM10067.1,11605.7L10199.5,11336.8L10464.4,11336.8L10596.8,11605.7L10464.4,11874.6L10199.5,11874.6L10067.1,11605.7ZM13064.5,8997.96L13196.9,8729.08L13461.8,8729.08L13594.2,8997.96L13461.8,9266.85L13196.9,9266.85L13064.5,8997.96ZM12208.1,9577.1L12340.5,9308.22L12605.4,9308.22L12737.8,9577.1L12605.4,9845.99L12340.5,9845.99L12208.1,9577.1ZM7926.1,12475.1L8058.53,12206.2L8323.39,12206.2L8455.81,12475.1L8323.39,12744L8058.53,12744L7926.1,12475.1ZM9638.88,8418.37L9771.31,8149.49L10036.2,8149.49L10168.6,8418.37L10036.2,8687.25L9771.31,8687.25L9638.88,8418.37ZM12636.3,8708.17L12768.8,8439.28L13033.6,8439.28L13166,8708.17L13033.6,8977.05L12768.8,8977.05L12636.3,8708.17ZM12636.3,5810.19L12768.8,5541.3L13033.6,5541.3L13166,5810.19L13033.6,6079.07L12768.8,6079.07L12636.3,5810.19ZM10067.1,12764.9L10199.5,12496L10464.4,12496L10596.8,12764.9L10464.4,13033.8L10199.5,13033.8L10067.1,12764.9ZM8333.8,9287.53L8333.82,9287.49L8476.46,9577.1L8333.73,9866.9L8476.46,10156.7L8333.73,10446.5L8476.46,10736.3L8333.73,11026.1L8476.46,11315.9L8333.73,11605.7L8476.46,11895.5L8333.73,12185.3L8476.46,12475.1L8333.73,12764.9L8476.46,13054.7L8333.73,13344.5L8476.33,13634L8476.31,13634.1L8333.69,13344.5L8476.41,13054.7L8333.69,12764.9L8476.41,12475.1L8333.69,12185.3L8476.41,11895.5L8333.69,11605.7L8476.41,11315.9L8333.69,11026.1L8476.41,10736.3L8333.69,10446.5L8476.41,10156.7L8333.69,9866.9L8476.41,9577.1L8333.8,9287.53ZM13064.5,4940.79L13196.9,4671.91L13461.8,4671.91L13594.2,4940.79L13461.8,5209.68L13196.9,5209.68L13064.5,4940.79ZM7497.95,5230.59L7630.38,4961.71L7895.24,4961.71L8027.66,5230.59L7895.24,5499.47L7630.38,5499.47L7497.95,5230.59ZM8354.33,12764.9L8486.76,12496L8751.61,12496L8884.04,12764.9L8751.61,13033.8L8486.76,13033.8L8354.33,12764.9ZM14471.1,8997.78L14328.5,8708.17L14471.2,8418.37L14328.5,8128.57L14471.2,7838.77L14328.5,7548.98L14471.2,7259.18L14328.5,6969.38L14471.2,6679.58L14328.5,6389.78L14471.2,6099.98L14328.5,5810.19L14471.2,5520.39L14328.5,5230.59L14471.2,4940.79L14328.6,4651.25L14328.6,4651.2L14471.2,4940.79L14328.5,5230.59L14471.2,5520.39L14328.5,5810.19L14471.2,6099.98L14328.5,6389.78L14471.2,6679.58L14328.5,6969.38L14471.2,7259.18L14328.5,7548.98L14471.2,7838.77L14328.5,8128.57L14471.2,8418.37L14328.5,8708.17L14471.1,8997.74L14471.1,8997.78ZM13920.9,10156.7L14053.3,9887.82L14318.2,9887.82L14450.6,10156.7L14318.2,10425.6L14053.3,10425.6L13920.9,10156.7ZM7497.95,8708.17L7630.38,8439.28L7895.24,8439.28L8027.66,8708.17L7895.24,8977.05L7630.38,8977.05L7497.95,8708.17ZM8782.5,7838.77L8914.93,7569.89L9179.79,7569.89L9312.21,7838.77L9179.79,8107.65L8914.93,8107.65L8782.5,7838.77ZM10495.3,7259.18L10627.7,6990.29L10892.6,6990.29L11025,7259.18L10892.6,7528.06L10627.7,7528.06L10495.3,7259.18ZM7497.95,6969.38L7630.38,6700.5L7895.24,6700.5L8027.66,6969.38L7895.24,7238.26L7630.38,7238.26L7497.95,6969.38ZM11351.7,8418.37L11484.1,8149.49L11749,8149.49L11881.4,8418.37L11749,8687.25L11484.1,8687.25L11351.7,8418.37ZM13064.5,8418.37L13196.9,8149.49L13461.8,8149.49L13594.2,8418.37L13461.8,8687.25L13196.9,8687.25L13064.5,8418.37ZM13492.7,9287.31L13625.1,9018.42L13890,9018.42L14022.4,9287.31L13890,9556.19L13625.1,9556.19L13492.7,9287.31ZM12636.3,5230.59L12768.8,4961.71L13033.6,4961.71L13166,5230.59L13033.6,5499.47L12768.8,5499.47L12636.3,5230.59ZM8354.33,13344.5L8486.76,13075.6L8751.61,13075.6L8884.04,13344.5L8751.61,13613.4L8486.76,13613.4L8354.33,13344.5ZM12636.3,6389.78L12768.8,6120.9L13033.6,6120.9L13166,6389.78L13033.6,6658.67L12768.8,6658.67L12636.3,6389.78ZM7926.1,4940.79L8058.53,4671.91L8323.39,4671.91L8455.81,4940.79L8323.39,5209.68L8058.53,5209.68L7926.1,4940.79ZM8782.5,11895.5L8914.93,11626.6L9179.79,11626.6L9312.21,11895.5L9179.79,12164.4L8914.93,12164.4L8782.5,11895.5ZM8782.5,12475.1L8914.93,12206.2L9179.79,12206.2L9312.21,12475.1L9179.79,12744L8914.93,12744L8782.5,12475.1ZM12636.3,8128.57L12768.8,7859.69L13033.6,7859.69L13166,8128.57L13033.6,8397.45L12768.8,8397.45L12636.3,8128.57ZM8782.5,11315.9L8914.93,11047L9179.79,11047L9312.21,11315.9L9179.79,11584.8L8914.93,11584.8L8782.5,11315.9ZM8782.5,7259.18L8914.93,6990.29L9179.79,6990.29L9312.21,7259.18L9179.79,7528.06L8914.93,7528.06L8782.5,7259.18ZM10923.5,5810.19L11056,5541.3L11320.8,5541.3L11453.3,5810.19L11320.8,6079.07L11056,6079.07L10923.5,5810.19ZM12636.3,7548.98L12768.8,7280.09L13033.6,7280.09L13166,7548.98L13033.6,7817.86L12768.8,7817.86L12636.3,7548.98ZM8782.5,13634.3L8914.93,13365.4L9179.79,13365.4L9312.21,13634.3L9179.79,13903.2L8914.93,13903.2L8782.5,13634.3ZM8782.5,13054.7L8914.93,12785.8L9179.79,12785.8L9312.21,13054.7L9179.79,13323.6L8914.93,13323.6L8782.5,13054.7ZM8354.33,12185.3L8486.76,11916.4L8751.61,11916.4L8884.04,12185.3L8751.61,12454.2L8486.76,12454.2L8354.33,12185.3ZM6641.54,7548.98L6773.97,7280.09L7038.82,7280.09L7171.25,7548.98L7038.82,7817.86L6773.97,7817.86L6641.54,7548.98ZM7926.1,8418.37L8058.53,8149.49L8323.39,8149.49L8455.81,8418.37L8323.39,8687.25L8058.53,8687.25L7926.1,8418.37ZM13064.5,5520.39L13196.9,5251.51L13461.8,5251.51L13594.2,5520.39L13461.8,5789.27L13196.9,5789.27L13064.5,5520.39ZM8782.5,9577.1L8914.93,9308.22L9179.79,9308.22L9312.21,9577.1L9179.79,9845.99L8914.93,9845.99L8782.5,9577.1ZM13064.5,6679.58L13196.9,6410.7L13461.8,6410.7L13594.2,6679.58L13461.8,6948.46L13196.9,6948.46L13064.5,6679.58ZM12208.1,12475.1L12340.5,12206.2L12605.4,12206.2L12737.8,12475.1L12605.4,12744L12340.5,12744L12208.1,12475.1ZM8354.33,9866.9L8486.76,9598.02L8751.61,9598.02L8884.04,9866.9L8751.61,10135.8L8486.76,10135.8L8354.33,9866.9ZM14328.6,9287.53L14328.6,9287.49L14471.2,9577.1L14328.5,9866.9L14471.2,10156.7L14328.5,10446.5L14471.2,10736.3L14328.5,11026.1L14471.2,11315.9L14328.5,11605.7L14471.2,11895.5L14328.5,12185.3L14471.2,12475.1L14328.5,12764.9L14471.2,13054.7L14328.5,13344.5L14471.1,13634L14471.1,13634.1L14328.5,13344.5L14471.2,13054.7L14328.5,12764.9L14471.2,12475.1L14328.5,12185.3L14471.2,11895.5L14328.5,11605.7L14471.2,11315.9L14328.5,11026.1L14471.2,10736.3L14328.5,10446.5L14471.2,10156.7L14328.5,9866.9L14471.2,9577.1L14328.6,9287.53ZM13920.9,10736.3L14053.3,10467.4L14318.2,10467.4L14450.6,10736.3L14318.2,11005.2L14053.3,11005.2L13920.9,10736.3ZM12208.1,10736.3L12340.5,10467.4L12605.4,10467.4L12737.8,10736.3L12605.4,11005.2L12340.5,11005.2L12208.1,10736.3ZM13492.7,6969.38L13625.1,6700.5L13890,6700.5L14022.4,6969.38L13890,7238.26L13625.1,7238.26L13492.7,6969.38ZM11779.9,12764.9L11912.4,12496L12177.2,12496L12309.6,12764.9L12177.2,13033.8L11912.4,13033.8L11779.9,12764.9ZM7069.73,8418.37L7202.15,8149.49L7467.01,8149.49L7599.44,8418.37L7467.01,8687.25L7202.15,8687.25L7069.73,8418.37ZM10923.5,7548.98L11056,7280.09L11320.8,7280.09L11453.3,7548.98L11320.8,7817.86L11056,7817.86L10923.5,7548.98ZM7926.1,11315.9L8058.53,11047L8323.39,11047L8455.81,11315.9L8323.39,11584.8L8058.53,11584.8L7926.1,11315.9ZM13064.5,11895.5L13196.9,11626.6L13461.8,11626.6L13594.2,11895.5L13461.8,12164.4L13196.9,12164.4L13064.5,11895.5ZM8782.5,10736.3L8914.93,10467.4L9179.79,10467.4L9312.21,10736.3L9179.79,11005.2L8914.93,11005.2L8782.5,10736.3ZM7926.1,6679.58L8058.53,6410.7L8323.39,6410.7L8455.81,6679.58L8323.39,6948.46L8058.53,6948.46L7926.1,6679.58ZM7926.1,6099.98L8058.53,5831.1L8323.39,5831.1L8455.81,6099.98L8323.39,6368.87L8058.53,6368.87L7926.1,6099.98ZM10923.5,12185.3L11056,11916.4L11320.8,11916.4L11453.3,12185.3L11320.8,12454.2L11056,12454.2L10923.5,12185.3ZM13064.5,11315.9L13196.9,11047L13461.8,11047L13594.2,11315.9L13461.8,11584.8L13196.9,11584.8L13064.5,11315.9ZM8782.5,10156.7L8914.93,9887.82L9179.79,9887.82L9312.21,10156.7L9179.79,10425.6L8914.93,10425.6L8782.5,10156.7ZM7497.95,5810.19L7630.38,5541.3L7895.24,5541.3L8027.66,5810.19L7895.24,6079.07L7630.38,6079.07L7497.95,5810.19ZM10923.5,5230.59L11056,4961.71L11320.8,4961.71L11453.3,5230.59L11320.8,5499.47L11056,5499.47L10923.5,5230.59ZM11045.5,8997.78L10902.9,8708.17L11045.6,8418.37L10902.9,8128.57L11045.6,7838.77L10902.9,7548.98L11045.6,7259.18L10902.9,6969.38L11045.6,6679.58L10902.9,6389.78L11045.6,6099.98L10902.9,5810.19L11045.6,5520.39L10902.9,5230.59L11045.6,4940.79L10903,4651.25L10903,4651.2L11045.7,4940.79L10902.9,5230.59L11045.7,5520.39L10902.9,5810.19L11045.7,6099.98L10902.9,6389.78L11045.7,6679.58L10902.9,6969.38L11045.7,7259.18L10902.9,7548.98L11045.7,7838.77L10902.9,8128.57L11045.7,8418.37L10902.9,8708.17L11045.6,8997.74L11045.5,8997.78ZM11351.7,12475.1L11484.1,12206.2L11749,12206.2L11881.4,12475.1L11749,12744L11484.1,12744L11351.7,12475.1ZM10617.3,9287.51L10617.3,9287.53L10474.7,9577.1L10617.4,9866.9L10474.7,10156.7L10617.4,10446.5L10474.7,10736.3L10617.4,11026.1L10474.7,11315.9L10617.4,11605.7L10474.7,11895.5L10617.4,12185.3L10474.7,12475.1L10617.4,12764.9L10474.7,13054.7L10617.4,13344.5L10474.8,13634.1L10474.8,13634L10617.4,13344.5L10474.7,13054.7L10617.4,12764.9L10474.7,12475.1L10617.4,12185.3L10474.7,11895.5L10617.4,11605.7L10474.7,11315.9L10617.4,11026.1L10474.7,10736.3L10617.4,10446.5L10474.7,10156.7L10617.4,9866.9L10474.7,9577.1L10617.3,9287.51ZM11351.7,7838.77L11484.1,7569.89L11749,7569.89L11881.4,7838.77L11749,8107.65L11484.1,8107.65L11351.7,7838.77ZM11779.9,5810.19L11912.4,5541.3L12177.2,5541.3L12309.6,5810.19L12177.2,6079.07L11912.4,6079.07L11779.9,5810.19ZM11351.7,13634.3L11484.1,13365.4L11749,13365.4L11881.4,13634.3L11749,13903.2L11484.1,13903.2L11351.7,13634.3ZM12208.1,8997.96L12340.5,8729.08L12605.4,8729.08L12737.8,8997.96L12605.4,9266.85L12340.5,9266.85L12208.1,8997.96ZM10923.5,9287.31L11056,9018.42L11320.8,9018.42L11453.3,9287.31L11320.8,9556.19L11056,9556.19L10923.5,9287.31ZM7619.95,8997.78L7477.31,8708.17L7620.04,8418.37L7477.31,8128.57L7620.04,7838.77L7477.31,7548.98L7620.04,7259.18L7477.31,6969.38L7620.04,6679.58L7477.31,6389.78L7620.04,6099.98L7477.31,5810.19L7620.04,5520.39L7477.31,5230.59L7620.04,4940.79L7477.43,4651.25L7477.46,4651.2L7620.08,4940.79L7477.35,5230.59L7620.08,5520.39L7477.35,5810.19L7620.08,6099.98L7477.35,6389.78L7620.08,6679.58L7477.35,6969.38L7620.08,7259.18L7477.35,7548.98L7620.08,7838.77L7477.35,8128.57L7620.08,8418.37L7477.35,8708.17L7619.97,8997.74L7619.95,8997.78ZM13492.7,12185.3L13625.1,11916.4L13890,11916.4L14022.4,12185.3L13890,12454.2L13625.1,12454.2L13492.7,12185.3ZM12636.3,11026.1L12768.8,10757.2L13033.6,10757.2L13166,11026.1L13033.6,11295L12768.8,11295L12636.3,11026.1ZM12636.3,9866.9L12768.8,9598.02L13033.6,9598.02L13166,9866.9L13033.6,10135.8L12768.8,10135.8L12636.3,9866.9ZM10923.5,11605.7L11056,11336.8L11320.8,11336.8L11453.3,11605.7L11320.8,11874.6L11056,11874.6L10923.5,11605.7ZM7497.95,10446.5L7630.38,10177.6L7895.24,10177.6L8027.66,10446.5L7895.24,10715.4L7630.38,10715.4L7497.95,10446.5ZM13492.7,11026.1L13625.1,10757.2L13890,10757.2L14022.4,11026.1L13890,11295L13625.1,11295L13492.7,11026.1ZM11779.9,10446.5L11912.4,10177.6L12177.2,10177.6L12309.6,10446.5L12177.2,10715.4L11912.4,10715.4L11779.9,10446.5ZM11779.9,6969.38L11912.4,6700.5L12177.2,6700.5L12309.6,6969.38L12177.2,7238.26L11912.4,7238.26L11779.9,6969.38ZM11351.7,4940.79L11484.1,4671.91L11749,4671.91L11881.4,4940.79L11749,5209.68L11484.1,5209.68L11351.7,4940.79ZM6641.54,13344.5L6773.97,13075.6L7038.82,13075.6L7171.25,13344.5L7038.82,13613.4L6773.97,13613.4L6641.54,13344.5ZM6641.54,12764.9L6773.97,12496L7038.82,12496L7171.25,12764.9L7038.82,13033.8L6773.97,13033.8L6641.54,12764.9ZM13064.5,6099.98L13196.9,5831.1L13461.8,5831.1L13594.2,6099.98L13461.8,6368.87L13196.9,6368.87L13064.5,6099.98ZM10495.3,10736.3L10627.7,10467.4L10892.6,10467.4L11025,10736.3L10892.6,11005.2L10627.7,11005.2L10495.3,10736.3ZM11351.7,10736.3L11484.1,10467.4L11749,10467.4L11881.4,10736.3L11749,11005.2L11484.1,11005.2L11351.7,10736.3ZM8476.32,8997.78L8333.69,8708.17L8476.41,8418.37L8333.69,8128.57L8476.41,7838.77L8333.69,7548.98L8476.41,7259.18L8333.69,6969.38L8476.41,6679.58L8333.69,6389.78L8476.41,6099.98L8333.69,5810.19L8476.41,5520.39L8333.69,5230.59L8476.41,4940.79L8333.81,4651.25L8333.83,4651.2L8476.46,4940.79L8333.73,5230.59L8476.46,5520.39L8333.73,5810.19L8476.46,6099.98L8333.73,6389.78L8476.46,6679.58L8333.73,6969.38L8476.46,7259.18L8333.73,7548.98L8476.46,7838.77L8333.73,8128.57L8476.46,8418.37L8333.73,8708.17L8476.34,8997.74L8476.32,8997.78ZM11759.4,9287.53L11759.4,9287.49L11902.1,9577.1L11759.3,9866.9L11902.1,10156.7L11759.3,10446.5L11902.1,10736.3L11759.3,11026.1L11902.1,11315.9L11759.3,11605.7L11902.1,11895.5L11759.3,12185.3L11902.1,12475.1L11759.3,12764.9L11902.1,13054.7L11759.3,13344.5L11901.9,13634L11901.9,13634.1L11759.3,13344.5L11902,13054.7L11759.3,12764.9L11902,12475.1L11759.3,12185.3L11902,11895.5L11759.3,11605.7L11902,11315.9L11759.3,11026.1L11902,10736.3L11759.3,10446.5L11902,10156.7L11759.3,9866.9L11902,9577.1L11759.4,9287.53ZM10067.1,8128.57L10199.5,7859.69L10464.4,7859.69L10596.8,8128.57L10464.4,8397.45L10199.5,8397.45L10067.1,8128.57ZM11779.9,7548.98L11912.4,7280.09L12177.2,7280.09L12309.6,7548.98L12177.2,7817.86L11912.4,7817.86L11779.9,7548.98ZM7069.73,6679.58L7202.15,6410.7L7467.01,6410.7L7599.44,6679.58L7467.01,6948.46L7202.15,6948.46L7069.73,6679.58ZM10067.1,7548.98L10199.5,7280.09L10464.4,7280.09L10596.8,7548.98L10464.4,7817.86L10199.5,7817.86L10067.1,7548.98ZM10903,9287.53L10903,9287.49L11045.7,9577.1L10902.9,9866.9L11045.7,10156.7L10902.9,10446.5L11045.7,10736.3L10902.9,11026.1L11045.7,11315.9L10902.9,11605.7L11045.7,11895.5L10902.9,12185.3L11045.7,12475.1L10902.9,12764.9L11045.7,13054.7L10902.9,13344.5L11045.5,13634L11045.5,13634.1L10902.9,13344.5L11045.6,13054.7L10902.9,12764.9L11045.6,12475.1L10902.9,12185.3L11045.6,11895.5L10902.9,11605.7L11045.6,11315.9L10902.9,11026.1L11045.6,10736.3L10902.9,10446.5L11045.6,10156.7L10902.9,9866.9L11045.6,9577.1L10903,9287.53ZM10067.1,6969.38L10199.5,6700.5L10464.4,6700.5L10596.8,6969.38L10464.4,7238.26L10199.5,7238.26L10067.1,6969.38ZM9190.2,9287.53L9190.22,9287.49L9332.86,9577.1L9190.13,9866.9L9332.86,10156.7L9190.13,10446.5L9332.86,10736.3L9190.13,11026.1L9332.86,11315.9L9190.13,11605.7L9332.86,11895.5L9190.13,12185.3L9332.86,12475.1L9190.13,12764.9L9332.86,13054.7L9190.13,13344.5L9332.73,13634L9332.71,13634.1L9190.09,13344.5L9332.81,13054.7L9190.09,12764.9L9332.81,12475.1L9190.09,12185.3L9332.81,11895.5L9190.09,11605.7L9332.81,11315.9L9190.09,11026.1L9332.81,10736.3L9190.09,10446.5L9332.81,10156.7L9190.09,9866.9L9332.81,9577.1L9190.2,9287.53ZM11351.7,9577.1L11484.1,9308.22L11749,9308.22L11881.4,9577.1L11749,9845.99L11484.1,9845.99L11351.7,9577.1ZM7477.42,9287.53L7477.44,9287.49L7620.08,9577.1L7477.35,9866.9L7620.08,10156.7L7477.35,10446.5L7620.08,10736.3L7477.35,11026.1L7620.08,11315.9L7477.35,11605.7L7620.08,11895.5L7477.35,12185.3L7620.08,12475.1L7477.35,12764.9L7620.08,13054.7L7477.35,13344.5L7619.96,13634L7619.94,13634.1L7477.31,13344.5L7620.04,13054.7L7477.31,12764.9L7620.04,12475.1L7477.31,12185.3L7620.04,11895.5L7477.31,11605.7L7620.04,11315.9L7477.31,11026.1L7620.04,10736.3L7477.31,10446.5L7620.04,10156.7L7477.31,9866.9L7620.04,9577.1L7477.42,9287.53ZM11351.7,11315.9L11484.1,11047L11749,11047L11881.4,11315.9L11749,11584.8L11484.1,11584.8L11351.7,11315.9ZM10495.3,11315.9L10627.7,11047L10892.6,11047L11025,11315.9L10892.6,11584.8L10627.7,11584.8L10495.3,11315.9ZM9332.72,8997.78L9190.09,8708.17L9332.81,8418.37L9190.09,8128.57L9332.81,7838.77L9190.09,7548.98L9332.81,7259.18L9190.09,6969.38L9332.81,6679.58L9190.09,6389.78L9332.81,6099.98L9190.09,5810.19L9332.81,5520.39L9190.09,5230.59L9332.81,4940.79L9190.21,4651.25L9190.23,4651.2L9332.86,4940.79L9190.13,5230.59L9332.86,5520.39L9190.13,5810.19L9332.86,6099.98L9190.13,6389.78L9332.86,6679.58L9190.13,6969.38L9332.86,7259.18L9190.13,7548.98L9332.86,7838.77L9190.13,8128.57L9332.86,8418.37L9190.13,8708.17L9332.75,8997.74L9332.72,8997.78ZM13064.5,13054.7L13196.9,12785.8L13461.8,12785.8L13594.2,13054.7L13461.8,13323.6L13196.9,13323.6L13064.5,13054.7ZM13064.5,7838.77L13196.9,7569.89L13461.8,7569.89L13594.2,7838.77L13461.8,8107.65L13196.9,8107.65L13064.5,7838.77ZM12208.1,7259.18L12340.5,6990.29L12605.4,6990.29L12737.8,7259.18L12605.4,7528.06L12340.5,7528.06L12208.1,7259.18ZM12208.1,13634.3L12340.5,13365.4L12605.4,13365.4L12737.8,13634.3L12605.4,13903.2L12340.5,13903.2L12208.1,13634.3ZM7497.95,9287.31L7630.38,9018.42L7895.24,9018.42L8027.66,9287.31L7895.24,9556.19L7630.38,9556.19L7497.95,9287.31ZM7497.95,11026.1L7630.38,10757.2L7895.24,10757.2L8027.66,11026.1L7895.24,11295L7630.38,11295L7497.95,11026.1ZM7069.73,7259.18L7202.15,6990.29L7467.01,6990.29L7599.44,7259.18L7467.01,7528.06L7202.15,7528.06L7069.73,7259.18ZM10474.8,8997.74L10617.4,8708.17L10474.7,8418.37L10617.4,8128.57L10474.7,7838.77L10617.4,7548.98L10474.7,7259.18L10617.4,6969.38L10474.7,6679.58L10617.4,6389.78L10474.7,6099.98L10617.4,5810.19L10474.7,5520.39L10617.4,5230.59L10474.7,4940.79L10617.3,4651.22L10617.3,4651.25L10474.7,4940.79L10617.4,5230.59L10474.7,5520.39L10617.4,5810.19L10474.7,6099.98L10617.4,6389.78L10474.7,6679.58L10617.4,6969.38L10474.7,7259.18L10617.4,7548.98L10474.7,7838.77L10617.4,8128.57L10474.7,8418.37L10617.4,8708.17L10474.8,8997.76L10474.8,8997.74ZM10189.1,8997.78L10046.5,8708.17L10189.2,8418.37L10046.5,8128.57L10189.2,7838.77L10046.5,7548.98L10189.2,7259.18L10046.5,6969.38L10189.2,6679.58L10046.5,6389.78L10189.2,6099.98L10046.5,5810.19L10189.2,5520.39L10046.5,5230.59L10189.2,4940.79L10046.6,4651.25L10046.6,4651.2L10189.2,4940.79L10046.5,5230.59L10189.2,5520.39L10046.5,5810.19L10189.2,6099.98L10046.5,6389.78L10189.2,6679.58L10046.5,6969.38L10189.2,7259.18L10046.5,7548.98L10189.2,7838.77L10046.5,8128.57L10189.2,8418.37L10046.5,8708.17L10189.1,8997.74L10189.1,8997.78ZM11351.7,5520.39L11484.1,5251.51L11749,5251.51L11881.4,5520.39L11749,5789.27L11484.1,5789.27L11351.7,5520.39ZM10067.1,8708.17L10199.5,8439.28L10464.4,8439.28L10596.8,8708.17L10464.4,8977.05L10199.5,8977.05L10067.1,8708.17ZM10067.1,5230.59L10199.5,4961.71L10464.4,4961.71L10596.8,5230.59L10464.4,5499.47L10199.5,5499.47L10067.1,5230.59ZM12208.1,8418.37L12340.5,8149.49L12605.4,8149.49L12737.8,8418.37L12605.4,8687.25L12340.5,8687.25L12208.1,8418.37ZM7497.95,8128.57L7630.38,7859.69L7895.24,7859.69L8027.66,8128.57L7895.24,8397.45L7630.38,8397.45L7497.95,8128.57ZM10923.5,12764.9L11056,12496L11320.8,12496L11453.3,12764.9L11320.8,13033.8L11056,13033.8L10923.5,12764.9ZM6641.54,10446.5L6773.97,10177.6L7038.82,10177.6L7171.25,10446.5L7038.82,10715.4L6773.97,10715.4L6641.54,10446.5ZM13064.5,10156.7L13196.9,9887.82L13461.8,9887.82L13594.2,10156.7L13461.8,10425.6L13196.9,10425.6L13064.5,10156.7ZM7069.73,12475.1L7202.15,12206.2L7467.01,12206.2L7599.44,12475.1L7467.01,12744L7202.15,12744L7069.73,12475.1ZM10067.1,12185.3L10199.5,11916.4L10464.4,11916.4L10596.8,12185.3L10464.4,12454.2L10199.5,12454.2L10067.1,12185.3ZM13920.9,5520.39L14053.3,5251.51L14318.2,5251.51L14450.6,5520.39L14318.2,5789.27L14053.3,5789.27L13920.9,5520.39ZM10495.3,8418.37L10627.7,8149.49L10892.6,8149.49L11025,8418.37L10892.6,8687.25L10627.7,8687.25L10495.3,8418.37ZM9210.73,13344.5L9343.16,13075.6L9608.01,13075.6L9740.44,13344.5L9608.01,13613.4L9343.16,13613.4L9210.73,13344.5ZM10923.5,10446.5L11056,10177.6L11320.8,10177.6L11453.3,10446.5L11320.8,10715.4L11056,10715.4L10923.5,10446.5ZM13920.9,6099.98L14053.3,5831.1L14318.2,5831.1L14450.6,6099.98L14318.2,6368.87L14053.3,6368.87L13920.9,6099.98ZM6641.54,6389.78L6773.97,6120.9L7038.82,6120.9L7171.25,6389.78L7038.82,6658.67L6773.97,6658.67L6641.54,6389.78ZM9210.73,11605.7L9343.16,11336.8L9608.01,11336.8L9740.44,11605.7L9608.01,11874.6L9343.16,11874.6L9210.73,11605.7ZM6641.54,11605.7L6773.97,11336.8L7038.82,11336.8L7171.25,11605.7L7038.82,11874.6L6773.97,11874.6L6641.54,11605.7ZM9638.88,9577.1L9771.31,9308.22L10036.2,9308.22L10168.6,9577.1L10036.2,9845.99L9771.31,9845.99L9638.88,9577.1ZM13492.7,5230.59L13625.1,4961.71L13890,4961.71L14022.4,5230.59L13890,5499.47L13625.1,5499.47L13492.7,5230.59ZM9638.88,11895.5L9771.31,11626.6L10036.2,11626.6L10168.6,11895.5L10036.2,12164.4L9771.31,12164.4L9638.88,11895.5ZM13492.7,6389.78L13625.1,6120.9L13890,6120.9L14022.4,6389.78L13890,6658.67L13625.1,6658.67L13492.7,6389.78ZM9210.73,12185.3L9343.16,11916.4L9608.01,11916.4L9740.44,12185.3L9608.01,12454.2L9343.16,12454.2L9210.73,12185.3ZM8354.33,9287.31L8486.76,9018.42L8751.61,9018.42L8884.04,9287.31L8751.61,9556.19L8486.76,9556.19L8354.33,9287.31ZM9210.73,11026.1L9343.16,10757.2L9608.01,10757.2L9740.44,11026.1L9608.01,11295L9343.16,11295L9210.73,11026.1ZM7497.95,7548.98L7630.38,7280.09L7895.24,7280.09L8027.66,7548.98L7895.24,7817.86L7630.38,7817.86L7497.95,7548.98ZM9210.73,9866.9L9343.16,9598.02L9608.01,9598.02L9740.44,9866.9L9608.01,10135.8L9343.16,10135.8L9210.73,9866.9ZM13492.7,8708.17L13625.1,8439.28L13890,8439.28L14022.4,8708.17L13890,8977.05L13625.1,8977.05L13492.7,8708.17ZM9210.73,9287.31L9343.16,9018.42L9608.01,9018.42L9740.44,9287.31L9608.01,9556.19L9343.16,9556.19L9210.73,9287.31ZM11351.7,13054.7L11484.1,12785.8L11749,12785.8L11881.4,13054.7L11749,13323.6L11484.1,13323.6L11351.7,13054.7ZM13064.5,12475.1L13196.9,12206.2L13461.8,12206.2L13594.2,12475.1L13461.8,12744L13196.9,12744L13064.5,12475.1ZM11779.9,12185.3L11912.4,11916.4L12177.2,11916.4L12309.6,12185.3L12177.2,12454.2L11912.4,12454.2L11779.9,12185.3ZM13492.7,8128.57L13625.1,7859.69L13890,7859.69L14022.4,8128.57L13890,8397.45L13625.1,8397.45L13492.7,8128.57ZM7069.73,13634.3L7202.15,13365.4L7467.01,13365.4L7599.44,13634.3L7467.01,13903.2L7202.15,13903.2L7069.73,13634.3ZM13492.7,9866.9L13625.1,9598.02L13890,9598.02L14022.4,9866.9L13890,10135.8L13625.1,10135.8L13492.7,9866.9ZM6641.54,9866.9L6773.97,9598.02L7038.82,9598.02L7171.25,9866.9L7038.82,10135.8L6773.97,10135.8L6641.54,9866.9ZM9210.73,5810.19L9343.16,5541.3L9608.01,5541.3L9740.44,5810.19L9608.01,6079.07L9343.16,6079.07L9210.73,5810.19ZM9210.73,6389.78L9343.16,6120.9L9608.01,6120.9L9740.44,6389.78L9608.01,6658.67L9343.16,6658.67L9210.73,6389.78ZM10067.1,13344.5L10199.5,13075.6L10464.4,13075.6L10596.8,13344.5L10464.4,13613.4L10199.5,13613.4L10067.1,13344.5ZM9638.88,5520.39L9771.31,5251.51L10036.2,5251.51L10168.6,5520.39L10036.2,5789.27L9771.31,5789.27L9638.88,5520.39ZM9210.73,12764.9L9343.16,12496L9608.01,12496L9740.44,12764.9L9608.01,13033.8L9343.16,13033.8L9210.73,12764.9ZM7069.73,6099.98L7202.15,5831.1L7467.01,5831.1L7599.44,6099.98L7467.01,6368.87L7202.15,6368.87L7069.73,6099.98ZM13492.7,7548.98L13625.1,7280.09L13890,7280.09L14022.4,7548.98L13890,7817.86L13625.1,7817.86L13492.7,7548.98ZM9638.88,12475.1L9771.31,12206.2L10036.2,12206.2L10168.6,12475.1L10036.2,12744L9771.31,12744L9638.88,12475.1ZM9638.88,8997.96L9771.31,8729.08L10036.2,8729.08L10168.6,8997.96L10036.2,9266.85L9771.31,9266.85L9638.88,8997.96ZM13064.5,10736.3L13196.9,10467.4L13461.8,10467.4L13594.2,10736.3L13461.8,11005.2L13196.9,11005.2L13064.5,10736.3ZM9638.88,10156.7L9771.31,9887.82L10036.2,9887.82L10168.6,10156.7L10036.2,10425.6L9771.31,10425.6L9638.88,10156.7ZM7069.73,10156.7L7202.15,9887.82L7467.01,9887.82L7599.44,10156.7L7467.01,10425.6L7202.15,10425.6L7069.73,10156.7ZM9210.73,10446.5L9343.16,10177.6L9608.01,10177.6L9740.44,10446.5L9608.01,10715.4L9343.16,10715.4L9210.73,10446.5ZM7069.73,4940.79L7202.15,4671.91L7467.01,4671.91L7599.44,4940.79L7467.01,5209.68L7202.15,5209.68L7069.73,4940.79ZM9638.88,6679.58L9771.31,6410.7L10036.2,6410.7L10168.6,6679.58L10036.2,6948.46L9771.31,6948.46L9638.88,6679.58ZM9210.73,8708.17L9343.16,8439.28L9608.01,8439.28L9740.44,8708.17L9608.01,8977.05L9343.16,8977.05L9210.73,8708.17ZM11351.7,11895.5L11484.1,11626.6L11749,11626.6L11881.4,11895.5L11749,12164.4L11484.1,12164.4L11351.7,11895.5ZM13920.9,7838.77L14053.3,7569.89L14318.2,7569.89L14450.6,7838.77L14318.2,8107.65L14053.3,8107.65L13920.9,7838.77ZM13920.9,6679.58L14053.3,6410.7L14318.2,6410.7L14450.6,6679.58L14318.2,6948.46L14053.3,6948.46L13920.9,6679.58ZM7069.73,13054.7L7202.15,12785.8L7467.01,12785.8L7599.44,13054.7L7467.01,13323.6L7202.15,13323.6L7069.73,13054.7ZM6641.54,9287.31L6773.97,9018.42L7038.82,9018.42L7171.25,9287.31L7038.82,9556.19L6773.97,9556.19L6641.54,9287.31ZM11779.9,11605.7L11912.4,11336.8L12177.2,11336.8L12309.6,11605.7L12177.2,11874.6L11912.4,11874.6L11779.9,11605.7ZM10923.5,11026.1L11056,10757.2L11320.8,10757.2L11453.3,11026.1L11320.8,11295L11056,11295L10923.5,11026.1ZM7069.73,11895.5L7202.15,11626.6L7467.01,11626.6L7599.44,11895.5L7467.01,12164.4L7202.15,12164.4L7069.73,11895.5ZM12636.3,13344.5L12768.8,13075.6L13033.6,13075.6L13166,13344.5L13033.6,13613.4L12768.8,13613.4L12636.3,13344.5ZM7069.73,11315.9L7202.15,11047L7467.01,11047L7599.44,11315.9L7467.01,11584.8L7202.15,11584.8L7069.73,11315.9ZM6641.54,8128.57L6773.97,7859.69L7038.82,7859.69L7171.25,8128.57L7038.82,8397.45L6773.97,8397.45L6641.54,8128.57ZM6641.54,12185.3L6773.97,11916.4L7038.82,11916.4L7171.25,12185.3L7038.82,12454.2L6773.97,12454.2L6641.54,12185.3ZM12208.1,13054.7L12340.5,12785.8L12605.4,12785.8L12737.8,13054.7L12605.4,13323.6L12340.5,13323.6L12208.1,13054.7ZM12636.3,12764.9L12768.8,12496L13033.6,12496L13166,12764.9L13033.6,13033.8L12768.8,13033.8L12636.3,12764.9ZM7926.1,13634.3L8058.53,13365.4L8323.39,13365.4L8455.81,13634.3L8323.39,13903.2L8058.53,13903.2L7926.1,13634.3ZM9638.88,10736.3L9771.31,10467.4L10036.2,10467.4L10168.6,10736.3L10036.2,11005.2L9771.31,11005.2L9638.88,10736.3ZM13920.9,8997.96L14053.3,8729.08L14318.2,8729.08L14450.6,8997.96L14318.2,9266.85L14053.3,9266.85L13920.9,8997.96ZM9638.88,4940.79L9771.31,4671.91L10036.2,4671.91L10168.6,4940.79L10036.2,5209.68L9771.31,5209.68L9638.88,4940.79ZM13920.9,7259.18L14053.3,6990.29L14318.2,6990.29L14450.6,7259.18L14318.2,7528.06L14053.3,7528.06L13920.9,7259.18ZM13920.9,8418.37L14053.3,8149.49L14318.2,8149.49L14450.6,8418.37L14318.2,8687.25L14053.3,8687.25L13920.9,8418.37ZM12636.3,9287.31L12768.8,9018.42L13033.6,9018.42L13166,9287.31L13033.6,9556.19L12768.8,9556.19L12636.3,9287.31ZM6641.54,8708.17L6773.97,8439.28L7038.82,8439.28L7171.25,8708.17L7038.82,8977.05L6773.97,8977.05L6641.54,8708.17ZM9210.73,8128.57L9343.16,7859.69L9608.01,7859.69L9740.44,8128.57L9608.01,8397.45L9343.16,8397.45L9210.73,8128.57ZM13920.9,4940.79L14053.3,4671.91L14318.2,4671.91L14450.6,4940.79L14318.2,5209.68L14053.3,5209.68L13920.9,4940.79ZM9638.88,7259.18L9771.31,6990.29L10036.2,6990.29L10168.6,7259.18L10036.2,7528.06L9771.31,7528.06L9638.88,7259.18ZM13492.7,5810.19L13625.1,5541.3L13890,5541.3L14022.4,5810.19L13890,6079.07L13625.1,6079.07L13492.7,5810.19ZM12636.3,12185.3L12768.8,11916.4L13033.6,11916.4L13166,12185.3L13033.6,12454.2L12768.8,12454.2L12636.3,12185.3ZM9210.73,7548.98L9343.16,7280.09L9608.01,7280.09L9740.44,7548.98L9608.01,7817.86L9343.16,7817.86L9210.73,7548.98ZM12208.1,11895.5L12340.5,11626.6L12605.4,11626.6L12737.8,11895.5L12605.4,12164.4L12340.5,12164.4L12208.1,11895.5ZM9210.73,6969.38L9343.16,6700.5L9608.01,6700.5L9740.44,6969.38L9608.01,7238.26L9343.16,7238.26L9210.73,6969.38ZM8782.5,8418.37L8914.93,8149.49L9179.79,8149.49L9312.21,8418.37L9179.79,8687.25L8914.93,8687.25L8782.5,8418.37ZM9210.73,5230.59L9343.16,4961.71L9608.01,4961.71L9740.44,5230.59L9608.01,5499.47L9343.16,5499.47L9210.73,5230.59ZM13920.9,12475.1L14053.3,12206.2L14318.2,12206.2L14450.6,12475.1L14318.2,12744L14053.3,12744L13920.9,12475.1ZM8354.33,7548.98L8486.76,7280.09L8751.61,7280.09L8884.04,7548.98L8751.61,7817.86L8486.76,7817.86L8354.33,7548.98ZM12636.3,10446.5L12768.8,10177.6L13033.6,10177.6L13166,10446.5L13033.6,10715.4L12768.8,10715.4L12636.3,10446.5ZM8782.5,8997.96L8914.93,8729.08L9179.79,8729.08L9312.21,8997.96L9179.79,9266.85L8914.93,9266.85L8782.5,8997.96ZM7926.1,10156.7L8058.53,9887.82L8323.39,9887.82L8455.81,10156.7L8323.39,10425.6L8058.53,10425.6L7926.1,10156.7ZM8354.33,5230.59L8486.76,4961.71L8751.61,4961.71L8884.04,5230.59L8751.61,5499.47L8486.76,5499.47L8354.33,5230.59ZM8782.5,4940.79L8914.93,4671.91L9179.79,4671.91L9312.21,4940.79L9179.79,5209.68L8914.93,5209.68L8782.5,4940.79ZM10923.5,13344.5L11056,13075.6L11320.8,13075.6L11453.3,13344.5L11320.8,13613.4L11056,13613.4L10923.5,13344.5ZM11779.9,9287.31L11912.4,9018.42L12177.2,9018.42L12309.6,9287.31L12177.2,9556.19L11912.4,9556.19L11779.9,9287.31ZM13064.5,13634.3L13196.9,13365.4L13461.8,13365.4L13594.2,13634.3L13461.8,13903.2L13196.9,13903.2L13064.5,13634.3ZM7926.1,11895.5L8058.53,11626.6L8323.39,11626.6L8455.81,11895.5L8323.39,12164.4L8058.53,12164.4L7926.1,11895.5ZM13920.9,9577.1L14053.3,9308.22L14318.2,9308.22L14450.6,9577.1L14318.2,9845.99L14053.3,9845.99L13920.9,9577.1ZM11779.9,9866.9L11912.4,9598.02L12177.2,9598.02L12309.6,9866.9L12177.2,10135.8L11912.4,10135.8L11779.9,9866.9ZM12208.1,10156.7L12340.5,9887.82L12605.4,9887.82L12737.8,10156.7L12605.4,10425.6L12340.5,10425.6L12208.1,10156.7ZM13492.7,10446.5L13625.1,10177.6L13890,10177.6L14022.4,10446.5L13890,10715.4L13625.1,10715.4L13492.7,10446.5ZM7497.95,9866.9L7630.38,9598.02L7895.24,9598.02L8027.66,9866.9L7895.24,10135.8L7630.38,10135.8L7497.95,9866.9ZM11351.7,6679.58L11484.1,6410.7L11749,6410.7L11881.4,6679.58L11749,6948.46L11484.1,6948.46L11351.7,6679.58ZM13920.9,13054.7L14053.3,12785.8L14318.2,12785.8L14450.6,13054.7L14318.2,13323.6L14053.3,13323.6L13920.9,13054.7ZM6641.54,5810.19L6773.97,5541.3L7038.82,5541.3L7171.25,5810.19L7038.82,6079.07L6773.97,6079.07L6641.54,5810.19ZM7926.1,13054.7L8058.53,12785.8L8323.39,12785.8L8455.81,13054.7L8323.39,13323.6L8058.53,13323.6L7926.1,13054.7ZM10923.5,8128.57L11056,7859.69L11320.8,7859.69L11453.3,8128.57L11320.8,8397.45L11056,8397.45L10923.5,8128.57ZM7069.73,7838.77L7202.15,7569.89L7467.01,7569.89L7599.44,7838.77L7467.01,8107.65L7202.15,8107.65L7069.73,7838.77ZM8782.5,6099.98L8914.93,5831.1L9179.79,5831.1L9312.21,6099.98L9179.79,6368.87L8914.93,6368.87L8782.5,6099.98ZM9638.88,13054.7L9771.31,12785.8L10036.2,12785.8L10168.6,13054.7L10036.2,13323.6L9771.31,13323.6L9638.88,13054.7ZM7497.95,12185.3L7630.38,11916.4L7895.24,11916.4L8027.66,12185.3L7895.24,12454.2L7630.38,12454.2L7497.95,12185.3ZM13920.9,13634.3L14053.3,13365.4L14318.2,13365.4L14450.6,13634.3L14318.2,13903.2L14053.3,13903.2L13920.9,13634.3ZM7497.95,11605.7L7630.38,11336.8L7895.24,11336.8L8027.66,11605.7L7895.24,11874.6L7630.38,11874.6L7497.95,11605.7ZM6641.54,6969.38L6773.97,6700.5L7038.82,6700.5L7171.25,6969.38L7038.82,7238.26L6773.97,7238.26L6641.54,6969.38ZM8354.33,6389.78L8486.76,6120.9L8751.61,6120.9L8884.04,6389.78L8751.61,6658.67L8486.76,6658.67L8354.33,6389.78ZM6641.54,5230.59L6773.97,4961.71L7038.82,4961.71L7171.25,5230.59L7038.82,5499.47L6773.97,5499.47L6641.54,5230.59ZM7069.73,8997.96L7202.15,8729.08L7467.01,8729.08L7599.44,8997.96L7467.01,9266.85L7202.15,9266.85L7069.73,8997.96ZM8354.33,5810.19L8486.76,5541.3L8751.61,5541.3L8884.04,5810.19L8751.61,6079.07L8486.76,6079.07L8354.33,5810.19ZM8354.33,6969.38L8486.76,6700.5L8751.61,6700.5L8884.04,6969.38L8751.61,7238.26L8486.76,7238.26L8354.33,6969.38ZM11351.7,6099.98L11484.1,5831.1L11749,5831.1L11881.4,6099.98L11749,6368.87L11484.1,6368.87L11351.7,6099.98ZM7069.73,5520.39L7202.15,5251.51L7467.01,5251.51L7599.44,5520.39L7467.01,5789.27L7202.15,5789.27L7069.73,5520.39ZM11779.9,8128.57L11912.4,7859.69L12177.2,7859.69L12309.6,8128.57L12177.2,8397.45L11912.4,8397.45L11779.9,8128.57ZM12208.1,5520.39L12340.5,5251.51L12605.4,5251.51L12737.8,5520.39L12605.4,5789.27L12340.5,5789.27L12208.1,5520.39ZM12208.1,6099.98L12340.5,5831.1L12605.4,5831.1L12737.8,6099.98L12605.4,6368.87L12340.5,6368.87L12208.1,6099.98ZM12208.1,4940.79L12340.5,4671.91L12605.4,4671.91L12737.8,4940.79L12605.4,5209.68L12340.5,5209.68L12208.1,4940.79ZM12208.1,6679.58L12340.5,6410.7L12605.4,6410.7L12737.8,6679.58L12605.4,6948.46L12340.5,6948.46L12208.1,6679.58ZM13614.7,8997.78L13472.1,8708.17L13614.8,8418.37L13472.1,8128.57L13614.8,7838.77L13472.1,7548.98L13614.8,7259.18L13472.1,6969.38L13614.8,6679.58L13472.1,6389.78L13614.8,6099.98L13472.1,5810.19L13614.8,5520.39L13472.1,5230.59L13614.8,4940.79L13472.2,4651.25L13472.2,4651.2L13614.8,4940.79L13472.1,5230.59L13614.8,5520.39L13472.1,5810.19L13614.8,6099.98L13472.1,6389.78L13614.8,6679.58L13472.1,6969.38L13614.8,7259.18L13472.1,7548.98L13614.8,7838.77L13472.1,8128.57L13614.8,8418.37L13472.1,8708.17L13614.7,8997.74L13614.7,8997.78ZM7926.1,7838.77L8058.53,7569.89L8323.39,7569.89L8455.81,7838.77L8323.39,8107.65L8058.53,8107.65L7926.1,7838.77ZM11901.9,8997.78L11759.3,8708.17L11902,8418.37L11759.3,8128.57L11902,7838.77L11759.3,7548.98L11902,7259.18L11759.3,6969.38L11902,6679.58L11759.3,6389.78L11902,6099.98L11759.3,5810.19L11902,5520.39L11759.3,5230.59L11902,4940.79L11759.4,4651.25L11759.4,4651.2L11902.1,4940.79L11759.3,5230.59L11902.1,5520.39L11759.3,5810.19L11902.1,6099.98L11759.3,6389.78L11902.1,6679.58L11759.3,6969.38L11902.1,7259.18L11759.3,7548.98L11902.1,7838.77L11759.3,8128.57L11902.1,8418.37L11759.3,8708.17L11901.9,8997.74L11901.9,8997.78ZM9638.88,11315.9L9771.31,11047L10036.2,11047L10168.6,11315.9L10036.2,11584.8L9771.31,11584.8L9638.88,11315.9ZM10495.3,4940.79L10627.7,4671.91L10892.6,4671.91L11025,4940.79L10892.6,5209.68L10627.7,5209.68L10495.3,4940.79ZM9638.88,13634.3L9771.31,13365.4L10036.2,13365.4L10168.6,13634.3L10036.2,13903.2L9771.31,13903.2L9638.88,13634.3ZM10495.3,6679.58L10627.7,6410.7L10892.6,6410.7L11025,6679.58L10892.6,6948.46L10627.7,6948.46L10495.3,6679.58ZM11779.9,8708.17L11912.4,8439.28L12177.2,8439.28L12309.6,8708.17L12177.2,8977.05L11912.4,8977.05L11779.9,8708.17ZM10067.1,9866.9L10199.5,9598.02L10464.4,9598.02L10596.8,9866.9L10464.4,10135.8L10199.5,10135.8L10067.1,9866.9ZM13492.7,11605.7L13625.1,11336.8L13890,11336.8L14022.4,11605.7L13890,11874.6L13625.1,11874.6L13492.7,11605.7ZM7926.1,8997.96L8058.53,8729.08L8323.39,8729.08L8455.81,8997.96L8323.39,9266.85L8058.53,9266.85L7926.1,8997.96ZM11779.9,5230.59L11912.4,4961.71L12177.2,4961.71L12309.6,5230.59L12177.2,5499.47L11912.4,5499.47L11779.9,5230.59ZM12208.1,7838.77L12340.5,7569.89L12605.4,7569.89L12737.8,7838.77L12605.4,8107.65L12340.5,8107.65L12208.1,7838.77ZM7497.95,6389.78L7630.38,6120.9L7895.24,6120.9L8027.66,6389.78L7895.24,6658.67L7630.38,6658.67L7497.95,6389.78ZM13492.7,13344.5L13625.1,13075.6L13890,13075.6L14022.4,13344.5L13890,13613.4L13625.1,13613.4L13492.7,13344.5ZM11351.7,7259.18L11484.1,6990.29L11749,6990.29L11881.4,7259.18L11749,7528.06L11484.1,7528.06L11351.7,7259.18ZM10067.1,11026.1L10199.5,10757.2L10464.4,10757.2L10596.8,11026.1L10464.4,11295L10199.5,11295L10067.1,11026.1ZM10046.6,9287.53L10046.6,9287.49L10189.2,9577.1L10046.5,9866.9L10189.2,10156.7L10046.5,10446.5L10189.2,10736.3L10046.5,11026.1L10189.2,11315.9L10046.5,11605.7L10189.2,11895.5L10046.5,12185.3L10189.2,12475.1L10046.5,12764.9L10189.2,13054.7L10046.5,13344.5L10189.1,13634L10189.1,13634.1L10046.5,13344.5L10189.2,13054.7L10046.5,12764.9L10189.2,12475.1L10046.5,12185.3L10189.2,11895.5L10046.5,11605.7L10189.2,11315.9L10046.5,11026.1L10189.2,10736.3L10046.5,10446.5L10189.2,10156.7L10046.5,9866.9L10189.2,9577.1L10046.6,9287.53ZM10923.5,6969.38L11056,6700.5L11320.8,6700.5L11453.3,6969.38L11320.8,7238.26L11056,7238.26L10923.5,6969.38ZM13920.9,11895.5L14053.3,11626.6L14318.2,11626.6L14450.6,11895.5L14318.2,12164.4L14053.3,12164.4L13920.9,11895.5ZM10495.3,5520.39L10627.7,5251.51L10892.6,5251.51L11025,5520.39L10892.6,5789.27L10627.7,5789.27L10495.3,5520.39ZM10495.3,6099.98L10627.7,5831.1L10892.6,5831.1L11025,6099.98L10892.6,6368.87L10627.7,6368.87L10495.3,6099.98ZM8782.5,5520.39L8914.93,5251.51L9179.79,5251.51L9312.21,5520.39L9179.79,5789.27L8914.93,5789.27L8782.5,5520.39ZM12615.8,9287.53L12615.8,9287.49L12758.5,9577.1L12615.7,9866.9L12758.5,10156.7L12615.7,10446.5L12758.5,10736.3L12615.7,11026.1L12758.5,11315.9L12615.7,11605.7L12758.5,11895.5L12615.7,12185.3L12758.5,12475.1L12615.7,12764.9L12758.5,13054.7L12615.7,13344.5L12758.3,13634L12758.3,13634.1L12615.7,13344.5L12758.4,13054.7L12615.7,12764.9L12758.4,12475.1L12615.7,12185.3L12758.4,11895.5L12615.7,11605.7L12758.4,11315.9L12615.7,11026.1L12758.4,10736.3L12615.7,10446.5L12758.4,10156.7L12615.7,9866.9L12758.4,9577.1L12615.8,9287.53ZM13472.2,9287.53L13472.2,9287.49L13614.8,9577.1L13472.1,9866.9L13614.8,10156.7L13472.1,10446.5L13614.8,10736.3L13472.1,11026.1L13614.8,11315.9L13472.1,11605.7L13614.8,11895.5L13472.1,12185.3L13614.8,12475.1L13472.1,12764.9L13614.8,13054.7L13472.1,13344.5L13614.7,13634L13614.7,13634.1L13472.1,13344.5L13614.8,13054.7L13472.1,12764.9L13614.8,12475.1L13472.1,12185.3L13614.8,11895.5L13472.1,11605.7L13614.8,11315.9L13472.1,11026.1L13614.8,10736.3L13472.1,10446.5L13614.8,10156.7L13472.1,9866.9L13614.8,9577.1L13472.2,9287.53ZM12758.3,8997.78L12615.7,8708.17L12758.4,8418.37L12615.7,8128.57L12758.4,7838.77L12615.7,7548.98L12758.4,7259.18L12615.7,6969.38L12758.4,6679.58L12615.7,6389.78L12758.4,6099.98L12615.7,5810.19L12758.4,5520.39L12615.7,5230.59L12758.4,4940.79L12615.8,4651.25L12615.8,4651.2L12758.5,4940.79L12615.7,5230.59L12758.5,5520.39L12615.7,5810.19L12758.5,6099.98L12615.7,6389.78L12758.5,6679.58L12615.7,6969.38L12758.5,7259.18L12615.7,7548.98L12758.5,7838.77L12615.7,8128.57L12758.5,8418.37L12615.7,8708.17L12758.3,8997.74L12758.3,8997.78ZM10067.1,10446.5L10199.5,10177.6L10464.4,10177.6L10596.8,10446.5L10464.4,10715.4L10199.5,10715.4L10067.1,10446.5ZM10495.3,8997.96L10627.7,8729.08L10892.6,8729.08L11025,8997.96L10892.6,9266.85L10627.7,9266.85L10495.3,8997.96ZM10923.5,6389.78L11056,6120.9L11320.8,6120.9L11453.3,6389.78L11320.8,6658.67L11056,6658.67L10923.5,6389.78ZM8782.5,6679.58L8914.93,6410.7L9179.79,6410.7L9312.21,6679.58L9179.79,6948.46L8914.93,6948.46L8782.5,6679.58ZM11351.7,8997.96L11484.1,8729.08L11749,8729.08L11881.4,8997.96L11749,9266.85L11484.1,9266.85L11351.7,8997.96ZM12208.1,11315.9L12340.5,11047L12605.4,11047L12737.8,11315.9L12605.4,11584.8L12340.5,11584.8L12208.1,11315.9ZM11779.9,6389.78L11912.4,6120.9L12177.2,6120.9L12309.6,6389.78L12177.2,6658.67L11912.4,6658.67L11779.9,6389.78ZM8354.33,8708.17L8486.76,8439.28L8751.61,8439.28L8884.04,8708.17L8751.61,8977.05L8486.76,8977.05L8354.33,8708.17ZM10495.3,7838.77L10627.7,7569.89L10892.6,7569.89L11025,7838.77L10892.6,8107.65L10627.7,8107.65L10495.3,7838.77ZM13492.7,12764.9L13625.1,12496L13890,12496L14022.4,12764.9L13890,13033.8L13625.1,13033.8L13492.7,12764.9ZM10923.5,8708.17L11056,8439.28L11320.8,8439.28L11453.3,8708.17L11320.8,8977.05L11056,8977.05L10923.5,8708.17ZM10067.1,9287.31L10199.5,9018.42L10464.4,9018.42L10596.8,9287.31L10464.4,9556.19L10199.5,9556.19L10067.1,9287.31ZM8354.33,8128.57L8486.76,7859.69L8751.61,7859.69L8884.04,8128.57L8751.61,8397.45L8486.76,8397.45L8354.33,8128.57ZM11351.7,10156.7L11484.1,9887.82L11749,9887.82L11881.4,10156.7L11749,10425.6L11484.1,10425.6L11351.7,10156.7ZM7926.1,9577.1L8058.53,9308.22L8323.39,9308.22L8455.81,9577.1L8323.39,9845.99L8058.53,9845.99L7926.1,9577.1ZM10495.3,11895.5L10627.7,11626.6L10892.6,11626.6L11025,11895.5L10892.6,12164.4L10627.7,12164.4L10495.3,11895.5ZM7926.1,10736.3L8058.53,10467.4L8323.39,10467.4L8455.81,10736.3L8323.39,11005.2L8058.53,11005.2L7926.1,10736.3Z" style="fill:rgb(255, 173, 8);"/>
            </g>
        </g>
    </g>
</svg>
