<?xml version="1.0" encoding="UTF-8" standalone="no"?><!DOCTYPE svg PUBLIC "-//W3C//DTD SVG 1.1//EN" "http://www.w3.org/Graphics/SVG/1.1/DTD/svg11.dtd"><svg width="100%" height="100%" viewBox="0 0 1080 1080" version="1.1" xmlns="http://www.w3.org/2000/svg" xmlns:xlink="http://www.w3.org/1999/xlink" xml:space="preserve" xmlns:serif="http://www.serif.com/" style="fill-rule:evenodd;clip-rule:evenodd;stroke-linejoin:round;stroke-miterlimit:2;"><g id="business-card" serif:id="business card"></g><g id="other"></g><g id="logos"><rect id="logo" x="0" y="0" width="1080" height="1080" style="fill:none;"/><clipPath id="_clip1"><rect id="logo1" serif:id="logo" x="0" y="0" width="1080" height="1080"/></clipPath><g clip-path="url(#_clip1)"><g id="bgs"><g id="bgs1" serif:id="bgs"><circle id="flat-bg" serif:id="flat bg" cx="540" cy="540" r="540" style="fill:#e4a21d;"/></g></g><g id="body"><path id="body--black-" serif:id="body (black)" d="M636.404,358.246c0.782,-4.745 1.856,-10.157 3.122,-13.692c4.178,-11.659 16.381,-38.456 20.548,-46.401c0.716,-1.365 3.829,0.147 4.449,-1.265c0.835,-1.901 -0.281,-6.861 0.558,-10.14c0.914,-3.57 2.87,-7.726 4.922,-11.278c2.457,-4.253 6.596,-9.831 9.824,-14.243c3.053,-4.173 6.726,-8.562 9.542,-12.231c2.483,-3.235 5.323,-7.108 7.351,-9.781c1.592,-2.097 3.368,-5.028 4.822,-6.256c1.034,-0.874 3.412,0.145 3.905,-1.116c1.507,-3.858 5.137,-22.033 5.137,-22.033c5.312,-0.409 9.378,1.062 12.076,4.599l-12.611,19.743c-0,-0 -6.464,12.9 -8.507,18.828c-1.862,5.404 -2.102,11.26 -3.747,16.734c-1.909,6.352 -5.089,15.811 -7.708,21.376c-2.05,4.354 -5.907,9.903 -8.009,12.012c-1.093,1.097 -3.841,-0.944 -3.437,0.435c0.465,1.583 1.417,4.632 1.364,7.936c-0.068,4.229 0.208,11.844 -0.966,17.601c-1.206,5.912 -4.074,12.731 -6.269,17.871c-1.922,4.503 -3.648,6.529 -6.819,9.714c-3.17,3.185 -9.575,2.456 -12.829,4.675c-1.424,0.97 -3.124,3.959 -4.465,6.697c25.629,23.055 41.59,55.482 41.59,91.377c-0,7.997 -0.792,15.822 -2.308,23.412l25.832,-23.654l6.123,3.424l6.888,-15.018l5.196,-10.589l5.692,-9.943l7.379,-13.523l5.475,-9.724l5.905,-8.423l6.985,-4.586l7.44,-2.892l6.28,-1.3l19.436,-17.111l11.732,-8.427l9.549,-6.945l11.514,-7.815l8.482,-3.978l7.954,-1.654l24.882,-14.555l6.517,-5.218l9.725,-6.671l8.7,-7.541l5.275,-12.32l13.855,13.287l-13.757,6.396l-10.847,9.112l-6.123,7.304l-11.12,9.626l-8.343,8.385l-5.906,6.178l-0.842,4.469l-9.779,9.718l-14.847,11.553l-16.791,15.037l-16.708,9.36l-7.033,-0.127l-6.252,6.946l-2.109,12.989l-4.775,10.732l-11.26,14.403l-9.585,10.602l-17.026,6.491l-10.221,3.19l-2.323,5.304l-13.389,6.334l-11.594,7.562l-12.614,5.913l-7.185,1.456c-2.841,8.678 -6.65,16.96 -11.309,24.735l6.225,8.737l46.543,55.597l1.399,9.562l18.448,3.278l65.024,65.303l10.32,16.46l36.394,31.599l18.646,17.857l16.652,14.723l3.214,7.836l15.872,18.639l14.764,12.334l15.952,8.091l14.32,3.749l11.044,-1.187l5.918,-2.507l-8.585,26.137l-12.767,-8.557l-17.583,-9.621l-18.436,-10.133l-19.105,-17.091l-8.402,-5.274l-5.145,8.479l-21.12,-9.822l-41.201,-46.436l-30.633,-31.287l-41.486,-41.828l-20.16,-19.159l-41.386,-32.088c0.259,0.552 0.514,1.104 0.767,1.657c-13.674,4.351 -23.855,14.465 -40.422,16.226c-26.02,2.767 -60.778,-5.279 -89.735,-5.114c-27.648,0.158 -48.7,3.061 -85.144,6.038c-13.117,1.072 -25.955,-6 -38.846,-10.288l-54.246,-2.687l-1.297,8.181l-88.433,67.848l-12.495,8.672l-9.73,6.908l-12.754,11.214l-12.185,11.042l-10.475,5.898l-17.469,7.437l-16.195,1.717l-11.169,5.673l-15.625,9.768l-16.008,9.504l-13.2,1.142l-15.884,2.953l-20.95,9.986l0.093,-18.215l28.069,-0.397l13.728,-4.926l18.568,-8.937l21.696,-17.197l7.564,-9.55l82.205,-55.049l84.434,-63.318l11.086,-4.483l3.565,-10.787l51.661,-67.86l-18.747,-9.958l-18.735,-6.126l-13.468,-6.879l-2.094,-5.824l-11.65,-1.473l-22.274,-13l-15.11,-15.668l-9.119,-13.913l-2.789,-12.743l-7.482,-4.12l-15.472,-0.697l-18.952,-1.897l-13.599,-8.984l-17.468,-9.732l-17.853,-15.444l4.285,-6.33l-39.092,-27.692l-25.248,-14.742l11.184,-10.098l20.243,20.165l37.943,20.036l7.298,0.234l38.511,15.342l28.952,17.675l9.345,6.023l10.745,-1.325l10.977,7.344l14.015,18.583l12.12,16.69l16.923,27.797l6.491,-2.571l36.693,26.008c-3.413,-11.13 -5.242,-22.882 -5.242,-35.032c0,-32.199 12.843,-61.607 33.982,-83.96l-15.319,-14.115l-12.92,-12.135l-2.686,-21.994l-0.647,-14.99l-0.838,-10.062l-1.854,-8.18l-0.501,-12.106l-0.049,-3.186l-0.304,-0.069l-14.017,2.018l-1.825,-3.612l14.014,-3.026l2.066,0.386l-0.057,-3.72l0.449,-12.581l-1.676,-7.482l-3.616,-7.82l0.277,-5.434l-5.517,-17.792l13,-4.147l-1.736,20.395l6.81,15.579l6.526,16.085l4.503,10.458l0.187,0.035l42.034,9.144l10.516,-1.405l16.101,-4.9l11.437,2.144c7.448,-6.297 17.282,-10.127 28.055,-10.127c6.632,-0 12.909,1.452 18.49,4.037c9.89,0.08 21.46,0.483 28.013,-0.077c4.359,-0.372 11.836,-0.221 15.883,-1.882c11.259,-4.622 39.853,-19.656 50.981,-23.76c3.695,-1.364 7.752,-2.713 10.653,-2.508c1.961,0.139 4.683,1.099 5.53,1.977c0.803,0.831 2.452,2.634 1.393,3.1c-1.518,0.667 -9.668,0.211 -12.313,1.324c-12.766,5.372 -63.664,28.848 -66.884,29.522c-2.024,0.423 -10.711,0.171 -10.711,0.171c-0,0 1.17,10.205 0.268,14.917c1.255,-0.2 2.559,-0.305 3.897,-0.305c10.047,-0 18.204,5.931 18.204,13.236c-0,1.374 -0.289,2.699 -0.825,3.947c11.3,8.006 18.077,18.218 18.077,29.335c-0,2.065 -0.234,4.098 -0.686,6.09c3.365,1.972 6.632,4.078 9.791,6.313Zm-133.234,-58.862c-0.569,-0.039 -1.145,-0.059 -1.727,-0.059c-10.047,-0 -18.204,5.931 -18.204,13.236c0,1.374 0.289,2.699 0.824,3.947c-11.299,8.006 -18.076,18.218 -18.076,29.335c-0,2.69 0.396,5.327 1.158,7.892l-3.938,-8.348l-5.048,-10.116l-5.991,-14.708l-10.875,-15.412l1.485,-6.809l-2.661,-14.936l37.132,8.476l8.413,2.235l12.09,-5.984l5.809,2.414l-0.391,8.837Z" style="fill:#302f2c;"/><path id="body--white-" serif:id="body (white)" d="M422.94,757.072c78.967,30.821 168.678,31.409 270.648,5.685c-23.623,62.129 -74.9,105.218 -134.291,105.218c-61.183,0 -113.754,-45.727 -136.357,-110.903Z" style="fill:#fffbf3;"/><path id="body--yellow-" serif:id="body (yellow)" d="M422.94,757.072c-0.583,-1.56 -11.824,-33.15 -11.824,-71.443c-0,-30.856 5.756,-58.8 16.765,-84.276c-0.165,0.381 0.16,-0.376 -0,0c15.079,3.559 30.013,13.408 45.328,12.157c36.444,-2.977 57.496,-5.88 85.144,-6.038c28.957,-0.165 63.715,7.881 89.735,5.114c16.567,-1.761 26.748,-11.875 40.422,-16.226c-0.285,-0.622 0.294,0.625 0,-0c12.612,26.814 18.967,56.078 18.967,89.269c0,27.555 -4.977,53.691 -13.889,77.128c-101.97,25.724 -191.681,25.136 -270.648,-5.685Zm1.588,-329.389c15.035,-54.554 67.894,-94.892 130.719,-94.892c61.06,-0 112.706,38.102 129.359,90.313c-80.685,-49.485 -167.306,-48.566 -260.078,4.579Z" style="fill:#bd8100;"/><path id="wings" d="M445.874,462.43c0,-0 -27.285,95.33 -44.334,129.281c-22.613,45.03 -42.73,97.767 -48.124,111.019c-18.358,45.103 -15.001,91.402 -14.248,117.77c0.294,10.299 9.351,32.026 15.599,37.768c5.573,5.122 21.907,13.539 29.259,11.741c52.724,-12.895 109.739,-101.199 107.259,-114.147c-0.678,-3.544 -6.196,-16.368 -8.968,-24.665c-3.692,-11.049 -11.545,-29.816 -13.185,-41.629c-1.35,-9.721 2.438,-19.48 3.341,-29.252c1.738,-18.791 9.129,-64.345 7.081,-83.489c-1.639,-15.327 -10.905,-24.933 -19.598,-36.968c-3,-4.154 3.809,-44.422 3.809,-44.422l-17.891,-33.007Zm208.533,-8.672c-0,-0 10.674,10.346 13.281,17.066c7.463,19.24 21.632,66.841 33.588,97.165c11.34,28.765 26.661,60.028 38.146,84.783c9.962,21.471 19.737,43.042 28.677,64.957c14.236,34.894 12.021,64.509 11.801,86.4c-0.281,27.893 -5.794,38.501 -10.24,46.738c-5.438,10.073 -15.799,15.299 -25.397,17.02c-11.868,2.128 -68.103,-34.694 -78.154,-48.896c-10.122,-14.303 -22.288,-32.433 -29.481,-42.489c-4.2,-5.871 -12.145,-11.061 -11.641,-18.263c0.878,-12.574 14.178,-43.182 16.372,-62.938c2.357,-21.225 -1.875,-45.165 -2.989,-64.686c-0.895,-15.681 -4.684,-34.96 -3.551,-48.766c1.02,-12.439 3.67,-17.505 11.358,-40.675c4.444,-13.392 -0.575,-31.675 -1.794,-41.402c-0.481,-3.841 -5.77,-10.08 -5.77,-10.08l15.794,-35.934Z" style="fill:#fd9;"/></g></g></g></svg>